<?xml version="1.0" encoding="UTF-8"?>
<!DOCTYPE svg PUBLIC "-//W3C//DTD SVG 1.1//EN" "http://www.w3.org/Graphics/SVG/1.1/DTD/svg11.dtd">
<svg xmlns="http://www.w3.org/2000/svg" version="1.1" width="360px" height="360px" style="shape-rendering:geometricPrecision; text-rendering:geometricPrecision; image-rendering:optimizeQuality; fill-rule:evenodd; clip-rule:evenodd" xmlns:xlink="http://www.w3.org/1999/xlink">
<g><path style="opacity:1" fill="#ededed" d="M -0.5,-0.5 C 7.5,-0.5 15.5,-0.5 23.5,-0.5C 23.5,7.5 23.5,15.5 23.5,23.5C 15.5,23.5 7.5,23.5 -0.5,23.5C -0.5,15.5 -0.5,7.5 -0.5,-0.5 Z"/></g>
<g><path style="opacity:1" fill="#fefffe" d="M 23.5,-0.5 C 31.5,-0.5 39.5,-0.5 47.5,-0.5C 47.5,7.5 47.5,15.5 47.5,23.5C 39.5,23.5 31.5,23.5 23.5,23.5C 23.5,15.5 23.5,7.5 23.5,-0.5 Z"/></g>
<g><path style="opacity:1" fill="#ededed" d="M 47.5,-0.5 C 55.5,-0.5 63.5,-0.5 71.5,-0.5C 71.5,7.5 71.5,15.5 71.5,23.5C 63.5,23.5 55.5,23.5 47.5,23.5C 47.5,15.5 47.5,7.5 47.5,-0.5 Z"/></g>
<g><path style="opacity:1" fill="#fefffe" d="M 71.5,-0.5 C 79.5,-0.5 87.5,-0.5 95.5,-0.5C 95.5,7.5 95.5,15.5 95.5,23.5C 87.5,23.5 79.5,23.5 71.5,23.5C 71.5,15.5 71.5,7.5 71.5,-0.5 Z"/></g>
<g><path style="opacity:1" fill="#ededed" d="M 95.5,-0.5 C 103.5,-0.5 111.5,-0.5 119.5,-0.5C 119.5,7.5 119.5,15.5 119.5,23.5C 111.5,23.5 103.5,23.5 95.5,23.5C 95.5,15.5 95.5,7.5 95.5,-0.5 Z"/></g>
<g><path style="opacity:1" fill="#fefffe" d="M 119.5,-0.5 C 127.5,-0.5 135.5,-0.5 143.5,-0.5C 143.5,7.5 143.5,15.5 143.5,23.5C 135.5,23.5 127.5,23.5 119.5,23.5C 119.5,15.5 119.5,7.5 119.5,-0.5 Z"/></g>
<g><path style="opacity:1" fill="#ededed" d="M 143.5,-0.5 C 151.5,-0.5 159.5,-0.5 167.5,-0.5C 167.5,7.5 167.5,15.5 167.5,23.5C 159.5,23.5 151.5,23.5 143.5,23.5C 143.5,15.5 143.5,7.5 143.5,-0.5 Z"/></g>
<g><path style="opacity:1" fill="#fefffe" d="M 167.5,-0.5 C 175.5,-0.5 183.5,-0.5 191.5,-0.5C 191.5,7.5 191.5,15.5 191.5,23.5C 183.5,23.5 175.5,23.5 167.5,23.5C 167.5,15.5 167.5,7.5 167.5,-0.5 Z"/></g>
<g><path style="opacity:1" fill="#ededed" d="M 191.5,-0.5 C 199.5,-0.5 207.5,-0.5 215.5,-0.5C 215.5,7.5 215.5,15.5 215.5,23.5C 207.5,23.5 199.5,23.5 191.5,23.5C 191.5,15.5 191.5,7.5 191.5,-0.5 Z"/></g>
<g><path style="opacity:1" fill="#fefffe" d="M 215.5,-0.5 C 223.5,-0.5 231.5,-0.5 239.5,-0.5C 239.5,7.5 239.5,15.5 239.5,23.5C 231.5,23.5 223.5,23.5 215.5,23.5C 215.5,15.5 215.5,7.5 215.5,-0.5 Z"/></g>
<g><path style="opacity:1" fill="#ededed" d="M 239.5,-0.5 C 247.5,-0.5 255.5,-0.5 263.5,-0.5C 263.5,7.5 263.5,15.5 263.5,23.5C 255.5,23.5 247.5,23.5 239.5,23.5C 239.5,15.5 239.5,7.5 239.5,-0.5 Z"/></g>
<g><path style="opacity:1" fill="#fefffe" d="M 263.5,-0.5 C 271.5,-0.5 279.5,-0.5 287.5,-0.5C 287.5,7.5 287.5,15.5 287.5,23.5C 279.5,23.5 271.5,23.5 263.5,23.5C 263.5,15.5 263.5,7.5 263.5,-0.5 Z"/></g>
<g><path style="opacity:1" fill="#ededed" d="M 287.5,-0.5 C 295.5,-0.5 303.5,-0.5 311.5,-0.5C 311.5,7.5 311.5,15.5 311.5,23.5C 303.5,23.5 295.5,23.5 287.5,23.5C 287.5,15.5 287.5,7.5 287.5,-0.5 Z"/></g>
<g><path style="opacity:1" fill="#fefffe" d="M 311.5,-0.5 C 319.5,-0.5 327.5,-0.5 335.5,-0.5C 335.5,7.5 335.5,15.5 335.5,23.5C 327.5,23.5 319.5,23.5 311.5,23.5C 311.5,15.5 311.5,7.5 311.5,-0.5 Z"/></g>
<g><path style="opacity:1" fill="#ededed" d="M 335.5,-0.5 C 343.5,-0.5 351.5,-0.5 359.5,-0.5C 359.5,7.5 359.5,15.5 359.5,23.5C 351.5,23.5 343.5,23.5 335.5,23.5C 335.5,15.5 335.5,7.5 335.5,-0.5 Z"/></g>
<g><path style="opacity:1" fill="#fefffe" d="M -0.5,23.5 C 7.5,23.5 15.5,23.5 23.5,23.5C 23.5,31.5 23.5,39.5 23.5,47.5C 15.5,47.5 7.5,47.5 -0.5,47.5C -0.5,39.5 -0.5,31.5 -0.5,23.5 Z"/></g>
<g><path style="opacity:1" fill="#fefffe" d="M 47.5,23.5 C 55.5,23.5 63.5,23.5 71.5,23.5C 71.5,31.5 71.5,39.5 71.5,47.5C 63.5,47.5 55.5,47.5 47.5,47.5C 47.5,39.5 47.5,31.5 47.5,23.5 Z"/></g>
<g><path style="opacity:1" fill="#fefffe" d="M 95.5,23.5 C 103.5,23.5 111.5,23.5 119.5,23.5C 119.5,31.5 119.5,39.5 119.5,47.5C 111.5,47.5 103.5,47.5 95.5,47.5C 95.5,39.5 95.5,31.5 95.5,23.5 Z"/></g>
<g><path style="opacity:1" fill="#fefffe" d="M 143.5,23.5 C 151.5,23.5 159.5,23.5 167.5,23.5C 167.5,31.5 167.5,39.5 167.5,47.5C 159.5,47.5 151.5,47.5 143.5,47.5C 143.5,39.5 143.5,31.5 143.5,23.5 Z"/></g>
<g><path style="opacity:1" fill="#fefffe" d="M 191.5,23.5 C 199.5,23.5 207.5,23.5 215.5,23.5C 215.5,31.5 215.5,39.5 215.5,47.5C 207.5,47.5 199.5,47.5 191.5,47.5C 191.5,39.5 191.5,31.5 191.5,23.5 Z"/></g>
<g><path style="opacity:1" fill="#fefffe" d="M 239.5,23.5 C 247.5,23.5 255.5,23.5 263.5,23.5C 263.5,31.5 263.5,39.5 263.5,47.5C 255.5,47.5 247.5,47.5 239.5,47.5C 239.5,39.5 239.5,31.5 239.5,23.5 Z"/></g>
<g><path style="opacity:1" fill="#fefffe" d="M 287.5,23.5 C 295.5,23.5 303.5,23.5 311.5,23.5C 311.5,31.5 311.5,39.5 311.5,47.5C 303.5,47.5 295.5,47.5 287.5,47.5C 287.5,39.5 287.5,31.5 287.5,23.5 Z"/></g>
<g><path style="opacity:1" fill="#fefffe" d="M 335.5,23.5 C 343.5,23.5 351.5,23.5 359.5,23.5C 359.5,31.5 359.5,39.5 359.5,47.5C 351.5,47.5 343.5,47.5 335.5,47.5C 335.5,39.5 335.5,31.5 335.5,23.5 Z"/></g>
<g><path style="opacity:1" fill="#ededed" d="M 23.5,23.5 C 31.5,23.5 39.5,23.5 47.5,23.5C 47.5,31.5 47.5,39.5 47.5,47.5C 39.5,47.5 31.5,47.5 23.5,47.5C 23.5,39.5 23.5,31.5 23.5,23.5 Z"/></g>
<g><path style="opacity:1" fill="#ededed" d="M 71.5,23.5 C 79.5,23.5 87.5,23.5 95.5,23.5C 95.5,31.5 95.5,39.5 95.5,47.5C 87.5,47.5 79.5,47.5 71.5,47.5C 71.5,39.5 71.5,31.5 71.5,23.5 Z"/></g>
<g><path style="opacity:1" fill="#ededed" d="M 119.5,23.5 C 127.5,23.5 135.5,23.5 143.5,23.5C 143.5,31.5 143.5,39.5 143.5,47.5C 135.5,47.5 127.5,47.5 119.5,47.5C 119.5,39.5 119.5,31.5 119.5,23.5 Z"/></g>
<g><path style="opacity:1" fill="#ededed" d="M 167.5,23.5 C 175.5,23.5 183.5,23.5 191.5,23.5C 191.5,31.5 191.5,39.5 191.5,47.5C 183.5,47.5 175.5,47.5 167.5,47.5C 167.5,39.5 167.5,31.5 167.5,23.5 Z"/></g>
<g><path style="opacity:1" fill="#ededed" d="M 215.5,23.5 C 223.5,23.5 231.5,23.5 239.5,23.5C 239.5,31.5 239.5,39.5 239.5,47.5C 231.5,47.5 223.5,47.5 215.5,47.5C 215.5,39.5 215.5,31.5 215.5,23.5 Z"/></g>
<g><path style="opacity:1" fill="#ededed" d="M 263.5,23.5 C 271.5,23.5 279.5,23.5 287.5,23.5C 287.5,31.5 287.5,39.5 287.5,47.5C 279.5,47.5 271.5,47.5 263.5,47.5C 263.5,39.5 263.5,31.5 263.5,23.5 Z"/></g>
<g><path style="opacity:1" fill="#ededed" d="M 311.5,23.5 C 319.5,23.5 327.5,23.5 335.5,23.5C 335.5,31.5 335.5,39.5 335.5,47.5C 327.5,47.5 319.5,47.5 311.5,47.5C 311.5,39.5 311.5,31.5 311.5,23.5 Z"/></g>
<g><path style="opacity:1" fill="#fefffe" d="M 23.5,47.5 C 31.5,47.5 39.5,47.5 47.5,47.5C 47.5,55.5 47.5,63.5 47.5,71.5C 39.5,71.5 31.5,71.5 23.5,71.5C 23.5,63.5 23.5,55.5 23.5,47.5 Z"/></g>
<g><path style="opacity:1" fill="#fefffe" d="M 71.5,47.5 C 79.5,47.5 87.5,47.5 95.5,47.5C 95.5,55.5 95.5,63.5 95.5,71.5C 87.5,71.5 79.5,71.5 71.5,71.5C 71.5,63.5 71.5,55.5 71.5,47.5 Z"/></g>
<g><path style="opacity:1" fill="#fefffe" d="M 119.5,47.5 C 127.5,47.5 135.5,47.5 143.5,47.5C 143.5,55.5 143.5,63.5 143.5,71.5C 135.5,71.5 127.5,71.5 119.5,71.5C 119.5,63.5 119.5,55.5 119.5,47.5 Z"/></g>
<g><path style="opacity:1" fill="#fefffe" d="M 167.5,47.5 C 175.5,47.5 183.5,47.5 191.5,47.5C 191.5,55.5 191.5,63.5 191.5,71.5C 183.5,71.5 175.5,71.5 167.5,71.5C 167.5,63.5 167.5,55.5 167.5,47.5 Z"/></g>
<g><path style="opacity:1" fill="#fefffe" d="M 215.5,47.5 C 223.5,47.5 231.5,47.5 239.5,47.5C 239.5,55.5 239.5,63.5 239.5,71.5C 231.5,71.5 223.5,71.5 215.5,71.5C 215.5,63.5 215.5,55.5 215.5,47.5 Z"/></g>
<g><path style="opacity:1" fill="#fefffe" d="M 263.5,47.5 C 271.5,47.5 279.5,47.5 287.5,47.5C 287.5,55.5 287.5,63.5 287.5,71.5C 279.5,71.5 271.5,71.5 263.5,71.5C 263.5,63.5 263.5,55.5 263.5,47.5 Z"/></g>
<g><path style="opacity:1" fill="#fefffe" d="M 311.5,47.5 C 319.5,47.5 327.5,47.5 335.5,47.5C 335.5,55.5 335.5,63.5 335.5,71.5C 327.5,71.5 319.5,71.5 311.5,71.5C 311.5,63.5 311.5,55.5 311.5,47.5 Z"/></g>
<g><path style="opacity:1" fill="#ededed" d="M -0.5,47.5 C 7.5,47.5 15.5,47.5 23.5,47.5C 23.5,55.5 23.5,63.5 23.5,71.5C 15.5,71.5 7.5,71.5 -0.5,71.5C -0.5,63.5 -0.5,55.5 -0.5,47.5 Z"/></g>
<g><path style="opacity:1" fill="#ededed" d="M 47.5,47.5 C 55.5,47.5 63.5,47.5 71.5,47.5C 71.5,55.5 71.5,63.5 71.5,71.5C 63.5,71.5 55.5,71.5 47.5,71.5C 47.5,63.5 47.5,55.5 47.5,47.5 Z"/></g>
<g><path style="opacity:1" fill="#ededed" d="M 95.5,47.5 C 103.5,47.5 111.5,47.5 119.5,47.5C 119.5,55.5 119.5,63.5 119.5,71.5C 111.5,71.5 103.5,71.5 95.5,71.5C 95.5,63.5 95.5,55.5 95.5,47.5 Z"/></g>
<g><path style="opacity:1" fill="#ededed" d="M 143.5,47.5 C 151.5,47.5 159.5,47.5 167.5,47.5C 167.5,55.5 167.5,63.5 167.5,71.5C 159.5,71.5 151.5,71.5 143.5,71.5C 143.5,63.5 143.5,55.5 143.5,47.5 Z"/></g>
<g><path style="opacity:1" fill="#ededed" d="M 191.5,47.5 C 199.5,47.5 207.5,47.5 215.5,47.5C 215.5,55.5 215.5,63.5 215.5,71.5C 207.5,71.5 199.5,71.5 191.5,71.5C 191.5,63.5 191.5,55.5 191.5,47.5 Z"/></g>
<g><path style="opacity:1" fill="#ededed" d="M 239.5,47.5 C 247.5,47.5 255.5,47.5 263.5,47.5C 263.5,55.5 263.5,63.5 263.5,71.5C 255.5,71.5 247.5,71.5 239.5,71.5C 239.5,63.5 239.5,55.5 239.5,47.5 Z"/></g>
<g><path style="opacity:1" fill="#ededed" d="M 287.5,47.5 C 295.5,47.5 303.5,47.5 311.5,47.5C 311.5,55.5 311.5,63.5 311.5,71.5C 303.5,71.5 295.5,71.5 287.5,71.5C 287.5,63.5 287.5,55.5 287.5,47.5 Z"/></g>
<g><path style="opacity:1" fill="#ededed" d="M 335.5,47.5 C 343.5,47.5 351.5,47.5 359.5,47.5C 359.5,55.5 359.5,63.5 359.5,71.5C 351.5,71.5 343.5,71.5 335.5,71.5C 335.5,63.5 335.5,55.5 335.5,47.5 Z"/></g>
<g><path style="opacity:1" fill="#fefffe" d="M -0.5,71.5 C 7.5,71.5 15.5,71.5 23.5,71.5C 23.5,79.5 23.5,87.5 23.5,95.5C 15.5,95.5 7.5,95.5 -0.5,95.5C -0.5,87.5 -0.5,79.5 -0.5,71.5 Z"/></g>
<g><path style="opacity:1" fill="#fefffe" d="M 47.5,71.5 C 55.5,71.5 63.5,71.5 71.5,71.5C 71.5,79.5 71.5,87.5 71.5,95.5C 63.5,95.5 55.5,95.5 47.5,95.5C 47.5,87.5 47.5,79.5 47.5,71.5 Z"/></g>
<g><path style="opacity:1" fill="#fefffe" d="M 95.5,71.5 C 103.5,71.5 111.5,71.5 119.5,71.5C 119.5,79.5 119.5,87.5 119.5,95.5C 111.5,95.5 103.5,95.5 95.5,95.5C 95.5,87.5 95.5,79.5 95.5,71.5 Z"/></g>
<g><path style="opacity:1" fill="#fefffe" d="M 143.5,71.5 C 151.5,71.5 159.5,71.5 167.5,71.5C 167.5,79.5 167.5,87.5 167.5,95.5C 159.5,95.5 151.5,95.5 143.5,95.5C 143.5,87.5 143.5,79.5 143.5,71.5 Z"/></g>
<g><path style="opacity:1" fill="#fefffe" d="M 191.5,71.5 C 199.5,71.5 207.5,71.5 215.5,71.5C 215.5,79.5 215.5,87.5 215.5,95.5C 207.5,95.5 199.5,95.5 191.5,95.5C 191.5,87.5 191.5,79.5 191.5,71.5 Z"/></g>
<g><path style="opacity:1" fill="#fefffe" d="M 239.5,71.5 C 247.5,71.5 255.5,71.5 263.5,71.5C 263.5,79.5 263.5,87.5 263.5,95.5C 255.5,95.5 247.5,95.5 239.5,95.5C 239.5,87.5 239.5,79.5 239.5,71.5 Z"/></g>
<g><path style="opacity:1" fill="#fefffe" d="M 287.5,71.5 C 295.5,71.5 303.5,71.5 311.5,71.5C 311.5,79.5 311.5,87.5 311.5,95.5C 303.5,95.5 295.5,95.5 287.5,95.5C 287.5,87.5 287.5,79.5 287.5,71.5 Z"/></g>
<g><path style="opacity:1" fill="#fefffe" d="M 335.5,71.5 C 343.5,71.5 351.5,71.5 359.5,71.5C 359.5,79.5 359.5,87.5 359.5,95.5C 351.5,95.5 343.5,95.5 335.5,95.5C 335.5,87.5 335.5,79.5 335.5,71.5 Z"/></g>
<g><path style="opacity:1" fill="#ededed" d="M 23.5,71.5 C 31.5,71.5 39.5,71.5 47.5,71.5C 47.5,79.5 47.5,87.5 47.5,95.5C 39.5,95.5 31.5,95.5 23.5,95.5C 23.5,87.5 23.5,79.5 23.5,71.5 Z"/></g>
<g><path style="opacity:1" fill="#ededed" d="M 71.5,71.5 C 79.5,71.5 87.5,71.5 95.5,71.5C 95.5,79.5 95.5,87.5 95.5,95.5C 87.5,95.5 79.5,95.5 71.5,95.5C 71.5,87.5 71.5,79.5 71.5,71.5 Z"/></g>
<g><path style="opacity:1" fill="#ededed" d="M 119.5,71.5 C 127.5,71.5 135.5,71.5 143.5,71.5C 143.5,79.5 143.5,87.5 143.5,95.5C 135.5,95.5 127.5,95.5 119.5,95.5C 119.5,87.5 119.5,79.5 119.5,71.5 Z"/></g>
<g><path style="opacity:1" fill="#ededed" d="M 167.5,71.5 C 175.5,71.5 183.5,71.5 191.5,71.5C 191.5,79.5 191.5,87.5 191.5,95.5C 183.5,95.5 175.5,95.5 167.5,95.5C 167.5,87.5 167.5,79.5 167.5,71.5 Z"/></g>
<g><path style="opacity:1" fill="#ededed" d="M 215.5,71.5 C 223.5,71.5 231.5,71.5 239.5,71.5C 239.5,79.5 239.5,87.5 239.5,95.5C 231.5,95.5 223.5,95.5 215.5,95.5C 215.5,87.5 215.5,79.5 215.5,71.5 Z"/></g>
<g><path style="opacity:1" fill="#ededed" d="M 263.5,71.5 C 271.5,71.5 279.5,71.5 287.5,71.5C 287.5,79.5 287.5,87.5 287.5,95.5C 279.5,95.5 271.5,95.5 263.5,95.5C 263.5,87.5 263.5,79.5 263.5,71.5 Z"/></g>
<g><path style="opacity:1" fill="#ededed" d="M 311.5,71.5 C 319.5,71.5 327.5,71.5 335.5,71.5C 335.5,79.5 335.5,87.5 335.5,95.5C 327.5,95.5 319.5,95.5 311.5,95.5C 311.5,87.5 311.5,79.5 311.5,71.5 Z"/></g>
<g><path style="opacity:1" fill="#fefffe" d="M 23.5,95.5 C 31.5,95.5 39.5,95.5 47.5,95.5C 47.5,103.5 47.5,111.5 47.5,119.5C 39.5,119.5 31.5,119.5 23.5,119.5C 23.5,111.5 23.5,103.5 23.5,95.5 Z"/></g>
<g><path style="opacity:1" fill="#fdfdfd" d="M 71.5,95.5 C 79.5,95.5 87.5,95.5 95.5,95.5C 95.5,102.167 95.5,108.833 95.5,115.5C 103.5,115.5 111.5,115.5 119.5,115.5C 119.5,108.833 119.5,102.167 119.5,95.5C 127.5,95.5 135.5,95.5 143.5,95.5C 143.5,102.167 143.5,108.833 143.5,115.5C 151.5,115.5 159.5,115.5 167.5,115.5C 167.5,108.833 167.5,102.167 167.5,95.5C 175.5,95.5 183.5,95.5 191.5,95.5C 191.5,102.167 191.5,108.833 191.5,115.5C 199.5,115.5 207.5,115.5 215.5,115.5C 215.5,108.833 215.5,102.167 215.5,95.5C 223.5,95.5 231.5,95.5 239.5,95.5C 239.5,102.167 239.5,108.833 239.5,115.5C 247.5,115.5 255.5,115.5 263.5,115.5C 263.5,108.833 263.5,102.167 263.5,95.5C 271.5,95.5 279.5,95.5 287.5,95.5C 287.5,103.5 287.5,111.5 287.5,119.5C 283.799,121.118 280.466,120.451 277.5,117.5C 211.499,117.333 145.499,117.5 79.5,118C 80.056,118.383 80.3893,118.883 80.5,119.5C 77.5,119.5 74.5,119.5 71.5,119.5C 71.5,111.5 71.5,103.5 71.5,95.5 Z"/></g>
<g><path style="opacity:1" fill="#fefffe" d="M 311.5,95.5 C 319.5,95.5 327.5,95.5 335.5,95.5C 335.5,103.5 335.5,111.5 335.5,119.5C 327.5,119.5 319.5,119.5 311.5,119.5C 311.5,111.5 311.5,103.5 311.5,95.5 Z"/></g>
<g><path style="opacity:1" fill="#ededed" d="M -0.5,95.5 C 7.5,95.5 15.5,95.5 23.5,95.5C 23.5,103.5 23.5,111.5 23.5,119.5C 15.5,119.5 7.5,119.5 -0.5,119.5C -0.5,111.5 -0.5,103.5 -0.5,95.5 Z"/></g>
<g><path style="opacity:1" fill="#ededed" d="M 47.5,95.5 C 55.5,95.5 63.5,95.5 71.5,95.5C 71.5,103.5 71.5,111.5 71.5,119.5C 63.5,119.5 55.5,119.5 47.5,119.5C 47.5,111.5 47.5,103.5 47.5,95.5 Z"/></g>
<g><path style="opacity:1" fill="#ededed" d="M 95.5,95.5 C 103.5,95.5 111.5,95.5 119.5,95.5C 119.5,102.167 119.5,108.833 119.5,115.5C 111.5,115.5 103.5,115.5 95.5,115.5C 95.5,108.833 95.5,102.167 95.5,95.5 Z"/></g>
<g><path style="opacity:1" fill="#ededed" d="M 143.5,95.5 C 151.5,95.5 159.5,95.5 167.5,95.5C 167.5,102.167 167.5,108.833 167.5,115.5C 159.5,115.5 151.5,115.5 143.5,115.5C 143.5,108.833 143.5,102.167 143.5,95.5 Z"/></g>
<g><path style="opacity:1" fill="#ededed" d="M 191.5,95.5 C 199.5,95.5 207.5,95.5 215.5,95.5C 215.5,102.167 215.5,108.833 215.5,115.5C 207.5,115.5 199.5,115.5 191.5,115.5C 191.5,108.833 191.5,102.167 191.5,95.5 Z"/></g>
<g><path style="opacity:1" fill="#ededed" d="M 239.5,95.5 C 247.5,95.5 255.5,95.5 263.5,95.5C 263.5,102.167 263.5,108.833 263.5,115.5C 255.5,115.5 247.5,115.5 239.5,115.5C 239.5,108.833 239.5,102.167 239.5,95.5 Z"/></g>
<g><path style="opacity:1" fill="#ededed" d="M 287.5,95.5 C 295.5,95.5 303.5,95.5 311.5,95.5C 311.5,103.5 311.5,111.5 311.5,119.5C 303.5,119.5 295.5,119.5 287.5,119.5C 287.5,111.5 287.5,103.5 287.5,95.5 Z"/></g>
<g><path style="opacity:1" fill="#ededed" d="M 335.5,95.5 C 343.5,95.5 351.5,95.5 359.5,95.5C 359.5,103.5 359.5,111.5 359.5,119.5C 351.5,119.5 343.5,119.5 335.5,119.5C 335.5,111.5 335.5,103.5 335.5,95.5 Z"/></g>
<g><path style="opacity:1" fill="#020202" d="M 277.5,117.5 C 275.756,119.75 273.756,121.917 271.5,124C 240.574,149.381 209.741,174.881 179,200.5C 146.589,172.917 113.756,145.917 80.5,119.5C 80.3893,118.883 80.056,118.383 79.5,118C 145.499,117.5 211.499,117.333 277.5,117.5 Z"/></g>
<g><path style="opacity:1" fill="#fefffe" d="M -0.5,119.5 C 7.5,119.5 15.5,119.5 23.5,119.5C 23.5,127.5 23.5,135.5 23.5,143.5C 15.5,143.5 7.5,143.5 -0.5,143.5C -0.5,135.5 -0.5,127.5 -0.5,119.5 Z"/></g>
<g><path style="opacity:1" fill="#fefffe" d="M 287.5,119.5 C 295.5,119.5 303.5,119.5 311.5,119.5C 311.5,127.5 311.5,135.5 311.5,143.5C 303.5,143.5 295.5,143.5 287.5,143.5C 287.5,135.5 287.5,127.5 287.5,119.5 Z"/></g>
<g><path style="opacity:1" fill="#fefffe" d="M 335.5,119.5 C 343.5,119.5 351.5,119.5 359.5,119.5C 359.5,127.5 359.5,135.5 359.5,143.5C 351.5,143.5 343.5,143.5 335.5,143.5C 335.5,135.5 335.5,127.5 335.5,119.5 Z"/></g>
<g><path style="opacity:1" fill="#ededed" d="M 23.5,119.5 C 31.5,119.5 39.5,119.5 47.5,119.5C 47.5,127.5 47.5,135.5 47.5,143.5C 39.5,143.5 31.5,143.5 23.5,143.5C 23.5,135.5 23.5,127.5 23.5,119.5 Z"/></g>
<g><path style="opacity:1" fill="#ededed" d="M 311.5,119.5 C 319.5,119.5 327.5,119.5 335.5,119.5C 335.5,127.5 335.5,135.5 335.5,143.5C 327.5,143.5 319.5,143.5 311.5,143.5C 311.5,135.5 311.5,127.5 311.5,119.5 Z"/></g>
<g><path style="opacity:1" fill="#020202" d="M 79.5,237.5 C 77.8333,238.5 76.5,239.833 75.5,241.5C 74.8826,241.611 74.3826,241.944 74,242.5C 73.5,203.835 73.3333,165.168 73.5,126.5C 73.369,125.761 73.5357,125.094 74,124.5C 93.6266,140.458 112.96,156.791 132,173.5C 134.086,177.667 133.753,181.667 131,185.5C 113.713,202.621 96.5464,219.954 79.5,237.5 Z"/></g>
<g><path style="opacity:1" fill="#020202" d="M 284.5,124.5 C 284.832,163.67 284.499,202.67 283.5,241.5C 282.167,240.5 280.833,239.5 279.5,238.5C 262.202,220.701 244.702,203.035 227,185.5C 223.742,177.836 225.576,171.669 232.5,167C 249.998,152.999 267.331,138.833 284.5,124.5 Z"/></g>
<g><path style="opacity:1" fill="#fefffe" d="M 23.5,143.5 C 31.5,143.5 39.5,143.5 47.5,143.5C 47.5,151.5 47.5,159.5 47.5,167.5C 39.5,167.5 31.5,167.5 23.5,167.5C 23.5,159.5 23.5,151.5 23.5,143.5 Z"/></g>
<g><path style="opacity:1" fill="#6b6b6b" d="M 72.5,126.5 C 72.8333,126.5 73.1667,126.5 73.5,126.5C 73.3333,165.168 73.5,203.835 74,242.5C 74.3826,241.944 74.8826,241.611 75.5,241.5C 75.1788,243.048 74.1788,243.715 72.5,243.5C 72.5,204.5 72.5,165.5 72.5,126.5 Z"/></g>
<g><path style="opacity:1" fill="#2b2b2b" d="M 284.5,124.5 C 285.434,125.568 285.768,126.901 285.5,128.5C 285.833,166.506 285.5,204.506 284.5,242.5C 283.893,242.376 283.56,242.043 283.5,241.5C 284.499,202.67 284.832,163.67 284.5,124.5 Z"/></g>
<g><path style="opacity:1" fill="#fefffe" d="M 311.5,143.5 C 319.5,143.5 327.5,143.5 335.5,143.5C 335.5,151.5 335.5,159.5 335.5,167.5C 327.5,167.5 319.5,167.5 311.5,167.5C 311.5,159.5 311.5,151.5 311.5,143.5 Z"/></g>
<g><path style="opacity:1" fill="#ededed" d="M 287.5,143.5 C 295.5,143.5 303.5,143.5 311.5,143.5C 311.5,151.5 311.5,159.5 311.5,167.5C 303.5,167.5 295.5,167.5 287.5,167.5C 287.5,159.5 287.5,151.5 287.5,143.5 Z"/></g>
<g><path style="opacity:1" fill="#ededed" d="M -0.5,143.5 C 7.5,143.5 15.5,143.5 23.5,143.5C 23.5,151.5 23.5,159.5 23.5,167.5C 15.5,167.5 7.5,167.5 -0.5,167.5C -0.5,159.5 -0.5,151.5 -0.5,143.5 Z"/></g>
<g><path style="opacity:1" fill="#ededed" d="M 47.5,143.5 C 55.5,143.5 63.5,143.5 71.5,143.5C 71.5,151.5 71.5,159.5 71.5,167.5C 63.5,167.5 55.5,167.5 47.5,167.5C 47.5,159.5 47.5,151.5 47.5,143.5 Z"/></g>
<g><path style="opacity:1" fill="#ededed" d="M 335.5,143.5 C 343.5,143.5 351.5,143.5 359.5,143.5C 359.5,151.5 359.5,159.5 359.5,167.5C 351.5,167.5 343.5,167.5 335.5,167.5C 335.5,159.5 335.5,151.5 335.5,143.5 Z"/></g>
<g><path style="opacity:1" fill="#fefffe" d="M -0.5,167.5 C 7.5,167.5 15.5,167.5 23.5,167.5C 23.5,175.5 23.5,183.5 23.5,191.5C 15.5,191.5 7.5,191.5 -0.5,191.5C -0.5,183.5 -0.5,175.5 -0.5,167.5 Z"/></g>
<g><path style="opacity:1" fill="#fefffe" d="M 335.5,167.5 C 343.5,167.5 351.5,167.5 359.5,167.5C 359.5,175.5 359.5,183.5 359.5,191.5C 351.5,191.5 343.5,191.5 335.5,191.5C 335.5,183.5 335.5,175.5 335.5,167.5 Z"/></g>
<g><path style="opacity:1" fill="#ededed" d="M 23.5,167.5 C 31.5,167.5 39.5,167.5 47.5,167.5C 47.5,175.5 47.5,183.5 47.5,191.5C 39.5,191.5 31.5,191.5 23.5,191.5C 23.5,183.5 23.5,175.5 23.5,167.5 Z"/></g>
<g><path style="opacity:1" fill="#ededed" d="M 311.5,167.5 C 319.5,167.5 327.5,167.5 335.5,167.5C 335.5,175.5 335.5,183.5 335.5,191.5C 327.5,191.5 319.5,191.5 311.5,191.5C 311.5,183.5 311.5,175.5 311.5,167.5 Z"/></g>
<g><path style="opacity:1" fill="#efefef" d="M 277.5,117.5 C 280.466,120.451 283.799,121.118 287.5,119.5C 287.5,127.5 287.5,135.5 287.5,143.5C 286.833,138.5 286.167,133.5 285.5,128.5C 285.768,126.901 285.434,125.568 284.5,124.5C 267.331,138.833 249.998,152.999 232.5,167C 225.576,171.669 223.742,177.836 227,185.5C 244.702,203.035 262.202,220.701 279.5,238.5C 276.921,239.228 274.254,239.728 271.5,240C 272.598,240.77 272.598,241.603 271.5,242.5C 251.854,223.188 232.187,203.855 212.5,184.5C 203.688,191.478 195.021,198.645 186.5,206C 184.252,207.914 181.752,209.414 179,210.5C 167.724,202.228 156.724,193.562 146,184.5C 124.866,205.094 104.033,225.76 83.5,246.5C 83.4606,245.417 83.1272,244.417 82.5,243.5C 83.7366,242.719 84.7366,241.719 85.5,240.5C 81.7962,240.028 79.7962,239.028 79.5,237.5C 96.5464,219.954 113.713,202.621 131,185.5C 133.753,181.667 134.086,177.667 132,173.5C 112.96,156.791 93.6266,140.458 74,124.5C 73.5357,125.094 73.369,125.761 73.5,126.5C 73.1667,126.5 72.8333,126.5 72.5,126.5C 72.0074,124.194 71.6741,121.861 71.5,119.5C 74.5,119.5 77.5,119.5 80.5,119.5C 113.756,145.917 146.589,172.917 179,200.5C 209.741,174.881 240.574,149.381 271.5,124C 273.756,121.917 275.756,119.75 277.5,117.5 Z"/></g>
<g><path style="opacity:1" fill="#fefffe" d="M 23.5,191.5 C 31.5,191.5 39.5,191.5 47.5,191.5C 47.5,199.5 47.5,207.5 47.5,215.5C 39.5,215.5 31.5,215.5 23.5,215.5C 23.5,207.5 23.5,199.5 23.5,191.5 Z"/></g>
<g><path style="opacity:1" fill="#fefffe" d="M 311.5,191.5 C 319.5,191.5 327.5,191.5 335.5,191.5C 335.5,199.5 335.5,207.5 335.5,215.5C 327.5,215.5 319.5,215.5 311.5,215.5C 311.5,207.5 311.5,199.5 311.5,191.5 Z"/></g>
<g><path style="opacity:1" fill="#ededed" d="M 311.5,191.5 C 311.5,199.5 311.5,207.5 311.5,215.5C 303.5,215.5 295.5,215.5 287.5,215.5C 287.5,207.5 287.5,199.5 287.5,191.5C 295.5,191.5 303.5,191.5 311.5,191.5 Z"/></g>
<g><path style="opacity:1" fill="#ededed" d="M -0.5,191.5 C 7.5,191.5 15.5,191.5 23.5,191.5C 23.5,199.5 23.5,207.5 23.5,215.5C 15.5,215.5 7.5,215.5 -0.5,215.5C -0.5,207.5 -0.5,199.5 -0.5,191.5 Z"/></g>
<g><path style="opacity:1" fill="#ededed" d="M 47.5,191.5 C 55.5,191.5 63.5,191.5 71.5,191.5C 71.5,199.5 71.5,207.5 71.5,215.5C 63.5,215.5 55.5,215.5 47.5,215.5C 47.5,207.5 47.5,199.5 47.5,191.5 Z"/></g>
<g><path style="opacity:1" fill="#ededed" d="M 335.5,191.5 C 343.5,191.5 351.5,191.5 359.5,191.5C 359.5,199.5 359.5,207.5 359.5,215.5C 351.5,215.5 343.5,215.5 335.5,215.5C 335.5,207.5 335.5,199.5 335.5,191.5 Z"/></g>
<g><path style="opacity:1" fill="#fefffe" d="M -0.5,215.5 C 7.5,215.5 15.5,215.5 23.5,215.5C 23.5,223.5 23.5,231.5 23.5,239.5C 15.5,239.5 7.5,239.5 -0.5,239.5C -0.5,231.5 -0.5,223.5 -0.5,215.5 Z"/></g>
<g><path style="opacity:1" fill="#fefffe" d="M 335.5,215.5 C 343.5,215.5 351.5,215.5 359.5,215.5C 359.5,223.5 359.5,231.5 359.5,239.5C 351.5,239.5 343.5,239.5 335.5,239.5C 335.5,231.5 335.5,223.5 335.5,215.5 Z"/></g>
<g><path style="opacity:1" fill="#ededed" d="M 23.5,215.5 C 31.5,215.5 39.5,215.5 47.5,215.5C 47.5,223.5 47.5,231.5 47.5,239.5C 39.5,239.5 31.5,239.5 23.5,239.5C 23.5,231.5 23.5,223.5 23.5,215.5 Z"/></g>
<g><path style="opacity:1" fill="#ededed" d="M 311.5,215.5 C 319.5,215.5 327.5,215.5 335.5,215.5C 335.5,223.5 335.5,231.5 335.5,239.5C 327.5,239.5 319.5,239.5 311.5,239.5C 311.5,231.5 311.5,223.5 311.5,215.5 Z"/></g>
<g><path style="opacity:1" fill="#fafafa" d="M 47.5,119.5 C 55.5,119.5 63.5,119.5 71.5,119.5C 71.6741,121.861 72.0074,124.194 72.5,126.5C 72.5,165.5 72.5,204.5 72.5,243.5C 74.1788,243.715 75.1788,243.048 75.5,241.5C 76.5,239.833 77.8333,238.5 79.5,237.5C 79.7962,239.028 81.7962,240.028 85.5,240.5C 84.7366,241.719 83.7366,242.719 82.5,243.5C 83.1272,244.417 83.4606,245.417 83.5,246.5C 82.3398,247.265 81.3398,248.265 80.5,249.5C 81.0253,250.192 81.6919,250.692 82.5,251C 146.833,251.667 211.167,251.667 275.5,251C 276.5,250.667 277.5,250.333 278.5,250C 275.961,247.63 273.628,245.13 271.5,242.5C 272.598,241.603 272.598,240.77 271.5,240C 274.254,239.728 276.921,239.228 279.5,238.5C 280.833,239.5 282.167,240.5 283.5,241.5C 283.56,242.043 283.893,242.376 284.5,242.5C 285.5,204.506 285.833,166.506 285.5,128.5C 286.167,133.5 286.833,138.5 287.5,143.5C 287.5,151.5 287.5,159.5 287.5,167.5C 295.5,167.5 303.5,167.5 311.5,167.5C 311.5,175.5 311.5,183.5 311.5,191.5C 303.5,191.5 295.5,191.5 287.5,191.5C 287.5,199.5 287.5,207.5 287.5,215.5C 295.5,215.5 303.5,215.5 311.5,215.5C 311.5,223.5 311.5,231.5 311.5,239.5C 311.5,247.5 311.5,255.5 311.5,263.5C 311.5,271.5 311.5,279.5 311.5,287.5C 303.5,287.5 295.5,287.5 287.5,287.5C 287.5,279.5 287.5,271.5 287.5,263.5C 279.5,263.5 271.5,263.5 263.5,263.5C 263.5,271.5 263.5,279.5 263.5,287.5C 255.5,287.5 247.5,287.5 239.5,287.5C 239.5,279.5 239.5,271.5 239.5,263.5C 231.5,263.5 223.5,263.5 215.5,263.5C 215.5,271.5 215.5,279.5 215.5,287.5C 207.5,287.5 199.5,287.5 191.5,287.5C 191.5,279.5 191.5,271.5 191.5,263.5C 183.5,263.5 175.5,263.5 167.5,263.5C 167.5,271.5 167.5,279.5 167.5,287.5C 159.5,287.5 151.5,287.5 143.5,287.5C 143.5,279.5 143.5,271.5 143.5,263.5C 135.5,263.5 127.5,263.5 119.5,263.5C 119.5,271.5 119.5,279.5 119.5,287.5C 111.5,287.5 103.5,287.5 95.5,287.5C 95.5,279.5 95.5,271.5 95.5,263.5C 87.5,263.5 79.5,263.5 71.5,263.5C 71.5,271.5 71.5,279.5 71.5,287.5C 63.5,287.5 55.5,287.5 47.5,287.5C 47.5,279.5 47.5,271.5 47.5,263.5C 47.5,255.5 47.5,247.5 47.5,239.5C 47.5,231.5 47.5,223.5 47.5,215.5C 55.5,215.5 63.5,215.5 71.5,215.5C 71.5,207.5 71.5,199.5 71.5,191.5C 63.5,191.5 55.5,191.5 47.5,191.5C 47.5,183.5 47.5,175.5 47.5,167.5C 55.5,167.5 63.5,167.5 71.5,167.5C 71.5,159.5 71.5,151.5 71.5,143.5C 63.5,143.5 55.5,143.5 47.5,143.5C 47.5,135.5 47.5,127.5 47.5,119.5 Z"/></g>
<g><path style="opacity:1" fill="#050505" d="M 271.5,242.5 C 273.628,245.13 275.961,247.63 278.5,250C 277.5,250.333 276.5,250.667 275.5,251C 211.167,251.667 146.833,251.667 82.5,251C 81.6919,250.692 81.0253,250.192 80.5,249.5C 81.3398,248.265 82.3398,247.265 83.5,246.5C 104.033,225.76 124.866,205.094 146,184.5C 156.724,193.562 167.724,202.228 179,210.5C 181.752,209.414 184.252,207.914 186.5,206C 195.021,198.645 203.688,191.478 212.5,184.5C 232.187,203.855 251.854,223.188 271.5,242.5 Z"/></g>
<g><path style="opacity:1" fill="#fefffe" d="M 23.5,239.5 C 31.5,239.5 39.5,239.5 47.5,239.5C 47.5,247.5 47.5,255.5 47.5,263.5C 39.5,263.5 31.5,263.5 23.5,263.5C 23.5,255.5 23.5,247.5 23.5,239.5 Z"/></g>
<g><path style="opacity:1" fill="#fefffe" d="M 311.5,239.5 C 319.5,239.5 327.5,239.5 335.5,239.5C 335.5,247.5 335.5,255.5 335.5,263.5C 327.5,263.5 319.5,263.5 311.5,263.5C 311.5,255.5 311.5,247.5 311.5,239.5 Z"/></g>
<g><path style="opacity:1" fill="#ededed" d="M -0.5,239.5 C 7.5,239.5 15.5,239.5 23.5,239.5C 23.5,247.5 23.5,255.5 23.5,263.5C 15.5,263.5 7.5,263.5 -0.5,263.5C -0.5,255.5 -0.5,247.5 -0.5,239.5 Z"/></g>
<g><path style="opacity:1" fill="#ededed" d="M 335.5,239.5 C 343.5,239.5 351.5,239.5 359.5,239.5C 359.5,247.5 359.5,255.5 359.5,263.5C 351.5,263.5 343.5,263.5 335.5,263.5C 335.5,255.5 335.5,247.5 335.5,239.5 Z"/></g>
<g><path style="opacity:1" fill="#fefffe" d="M -0.5,263.5 C 7.5,263.5 15.5,263.5 23.5,263.5C 23.5,271.5 23.5,279.5 23.5,287.5C 15.5,287.5 7.5,287.5 -0.5,287.5C -0.5,279.5 -0.5,271.5 -0.5,263.5 Z"/></g>
<g><path style="opacity:1" fill="#fefffe" d="M 335.5,263.5 C 343.5,263.5 351.5,263.5 359.5,263.5C 359.5,271.5 359.5,279.5 359.5,287.5C 351.5,287.5 343.5,287.5 335.5,287.5C 335.5,279.5 335.5,271.5 335.5,263.5 Z"/></g>
<g><path style="opacity:1" fill="#ededed" d="M 23.5,263.5 C 31.5,263.5 39.5,263.5 47.5,263.5C 47.5,271.5 47.5,279.5 47.5,287.5C 39.5,287.5 31.5,287.5 23.5,287.5C 23.5,279.5 23.5,271.5 23.5,263.5 Z"/></g>
<g><path style="opacity:1" fill="#ededed" d="M 95.5,287.5 C 87.5,287.5 79.5,287.5 71.5,287.5C 71.5,279.5 71.5,271.5 71.5,263.5C 79.5,263.5 87.5,263.5 95.5,263.5C 95.5,271.5 95.5,279.5 95.5,287.5 Z"/></g>
<g><path style="opacity:1" fill="#ededed" d="M 143.5,287.5 C 135.5,287.5 127.5,287.5 119.5,287.5C 119.5,279.5 119.5,271.5 119.5,263.5C 127.5,263.5 135.5,263.5 143.5,263.5C 143.5,271.5 143.5,279.5 143.5,287.5 Z"/></g>
<g><path style="opacity:1" fill="#ededed" d="M 191.5,287.5 C 183.5,287.5 175.5,287.5 167.5,287.5C 167.5,279.5 167.5,271.5 167.5,263.5C 175.5,263.5 183.5,263.5 191.5,263.5C 191.5,271.5 191.5,279.5 191.5,287.5 Z"/></g>
<g><path style="opacity:1" fill="#ededed" d="M 239.5,287.5 C 231.5,287.5 223.5,287.5 215.5,287.5C 215.5,279.5 215.5,271.5 215.5,263.5C 223.5,263.5 231.5,263.5 239.5,263.5C 239.5,271.5 239.5,279.5 239.5,287.5 Z"/></g>
<g><path style="opacity:1" fill="#ededed" d="M 287.5,287.5 C 279.5,287.5 271.5,287.5 263.5,287.5C 263.5,279.5 263.5,271.5 263.5,263.5C 271.5,263.5 279.5,263.5 287.5,263.5C 287.5,271.5 287.5,279.5 287.5,287.5 Z"/></g>
<g><path style="opacity:1" fill="#ededed" d="M 311.5,263.5 C 319.5,263.5 327.5,263.5 335.5,263.5C 335.5,271.5 335.5,279.5 335.5,287.5C 327.5,287.5 319.5,287.5 311.5,287.5C 311.5,279.5 311.5,271.5 311.5,263.5 Z"/></g>
<g><path style="opacity:1" fill="#fefffe" d="M 23.5,287.5 C 31.5,287.5 39.5,287.5 47.5,287.5C 47.5,295.5 47.5,303.5 47.5,311.5C 39.5,311.5 31.5,311.5 23.5,311.5C 23.5,303.5 23.5,295.5 23.5,287.5 Z"/></g>
<g><path style="opacity:1" fill="#fefffe" d="M 71.5,287.5 C 79.5,287.5 87.5,287.5 95.5,287.5C 95.5,295.5 95.5,303.5 95.5,311.5C 87.5,311.5 79.5,311.5 71.5,311.5C 71.5,303.5 71.5,295.5 71.5,287.5 Z"/></g>
<g><path style="opacity:1" fill="#fefffe" d="M 119.5,287.5 C 127.5,287.5 135.5,287.5 143.5,287.5C 143.5,295.5 143.5,303.5 143.5,311.5C 135.5,311.5 127.5,311.5 119.5,311.5C 119.5,303.5 119.5,295.5 119.5,287.5 Z"/></g>
<g><path style="opacity:1" fill="#fefffe" d="M 167.5,287.5 C 175.5,287.5 183.5,287.5 191.5,287.5C 191.5,295.5 191.5,303.5 191.5,311.5C 183.5,311.5 175.5,311.5 167.5,311.5C 167.5,303.5 167.5,295.5 167.5,287.5 Z"/></g>
<g><path style="opacity:1" fill="#fefffe" d="M 215.5,287.5 C 223.5,287.5 231.5,287.5 239.5,287.5C 239.5,295.5 239.5,303.5 239.5,311.5C 231.5,311.5 223.5,311.5 215.5,311.5C 215.5,303.5 215.5,295.5 215.5,287.5 Z"/></g>
<g><path style="opacity:1" fill="#fefffe" d="M 263.5,287.5 C 271.5,287.5 279.5,287.5 287.5,287.5C 287.5,295.5 287.5,303.5 287.5,311.5C 279.5,311.5 271.5,311.5 263.5,311.5C 263.5,303.5 263.5,295.5 263.5,287.5 Z"/></g>
<g><path style="opacity:1" fill="#fefffe" d="M 311.5,287.5 C 319.5,287.5 327.5,287.5 335.5,287.5C 335.5,295.5 335.5,303.5 335.5,311.5C 327.5,311.5 319.5,311.5 311.5,311.5C 311.5,303.5 311.5,295.5 311.5,287.5 Z"/></g>
<g><path style="opacity:1" fill="#ededed" d="M -0.5,287.5 C 7.5,287.5 15.5,287.5 23.5,287.5C 23.5,295.5 23.5,303.5 23.5,311.5C 15.5,311.5 7.5,311.5 -0.5,311.5C -0.5,303.5 -0.5,295.5 -0.5,287.5 Z"/></g>
<g><path style="opacity:1" fill="#ededed" d="M 47.5,287.5 C 55.5,287.5 63.5,287.5 71.5,287.5C 71.5,295.5 71.5,303.5 71.5,311.5C 63.5,311.5 55.5,311.5 47.5,311.5C 47.5,303.5 47.5,295.5 47.5,287.5 Z"/></g>
<g><path style="opacity:1" fill="#ededed" d="M 95.5,287.5 C 103.5,287.5 111.5,287.5 119.5,287.5C 119.5,295.5 119.5,303.5 119.5,311.5C 111.5,311.5 103.5,311.5 95.5,311.5C 95.5,303.5 95.5,295.5 95.5,287.5 Z"/></g>
<g><path style="opacity:1" fill="#ededed" d="M 143.5,287.5 C 151.5,287.5 159.5,287.5 167.5,287.5C 167.5,295.5 167.5,303.5 167.5,311.5C 159.5,311.5 151.5,311.5 143.5,311.5C 143.5,303.5 143.5,295.5 143.5,287.5 Z"/></g>
<g><path style="opacity:1" fill="#ededed" d="M 191.5,287.5 C 199.5,287.5 207.5,287.5 215.5,287.5C 215.5,295.5 215.5,303.5 215.5,311.5C 207.5,311.5 199.5,311.5 191.5,311.5C 191.5,303.5 191.5,295.5 191.5,287.5 Z"/></g>
<g><path style="opacity:1" fill="#ededed" d="M 239.5,287.5 C 247.5,287.5 255.5,287.5 263.5,287.5C 263.5,295.5 263.5,303.5 263.5,311.5C 255.5,311.5 247.5,311.5 239.5,311.5C 239.5,303.5 239.5,295.5 239.5,287.5 Z"/></g>
<g><path style="opacity:1" fill="#ededed" d="M 287.5,287.5 C 295.5,287.5 303.5,287.5 311.5,287.5C 311.5,295.5 311.5,303.5 311.5,311.5C 303.5,311.5 295.5,311.5 287.5,311.5C 287.5,303.5 287.5,295.5 287.5,287.5 Z"/></g>
<g><path style="opacity:1" fill="#ededed" d="M 335.5,287.5 C 343.5,287.5 351.5,287.5 359.5,287.5C 359.5,295.5 359.5,303.5 359.5,311.5C 351.5,311.5 343.5,311.5 335.5,311.5C 335.5,303.5 335.5,295.5 335.5,287.5 Z"/></g>
<g><path style="opacity:1" fill="#fefffe" d="M -0.5,311.5 C 7.5,311.5 15.5,311.5 23.5,311.5C 23.5,319.5 23.5,327.5 23.5,335.5C 15.5,335.5 7.5,335.5 -0.5,335.5C -0.5,327.5 -0.5,319.5 -0.5,311.5 Z"/></g>
<g><path style="opacity:1" fill="#fefffe" d="M 47.5,311.5 C 55.5,311.5 63.5,311.5 71.5,311.5C 71.5,319.5 71.5,327.5 71.5,335.5C 63.5,335.5 55.5,335.5 47.5,335.5C 47.5,327.5 47.5,319.5 47.5,311.5 Z"/></g>
<g><path style="opacity:1" fill="#fefffe" d="M 95.5,311.5 C 103.5,311.5 111.5,311.5 119.5,311.5C 119.5,319.5 119.5,327.5 119.5,335.5C 111.5,335.5 103.5,335.5 95.5,335.5C 95.5,327.5 95.5,319.5 95.5,311.5 Z"/></g>
<g><path style="opacity:1" fill="#fefffe" d="M 143.5,311.5 C 151.5,311.5 159.5,311.5 167.5,311.5C 167.5,319.5 167.5,327.5 167.5,335.5C 159.5,335.5 151.5,335.5 143.5,335.5C 143.5,327.5 143.5,319.5 143.5,311.5 Z"/></g>
<g><path style="opacity:1" fill="#fefffe" d="M 191.5,311.5 C 199.5,311.5 207.5,311.5 215.5,311.5C 215.5,319.5 215.5,327.5 215.5,335.5C 207.5,335.5 199.5,335.5 191.5,335.5C 191.5,327.5 191.5,319.5 191.5,311.5 Z"/></g>
<g><path style="opacity:1" fill="#fefffe" d="M 239.5,311.5 C 247.5,311.5 255.5,311.5 263.5,311.5C 263.5,319.5 263.5,327.5 263.5,335.5C 255.5,335.5 247.5,335.5 239.5,335.5C 239.5,327.5 239.5,319.5 239.5,311.5 Z"/></g>
<g><path style="opacity:1" fill="#fefffe" d="M 287.5,311.5 C 295.5,311.5 303.5,311.5 311.5,311.5C 311.5,319.5 311.5,327.5 311.5,335.5C 303.5,335.5 295.5,335.5 287.5,335.5C 287.5,327.5 287.5,319.5 287.5,311.5 Z"/></g>
<g><path style="opacity:1" fill="#fefffe" d="M 335.5,311.5 C 343.5,311.5 351.5,311.5 359.5,311.5C 359.5,319.5 359.5,327.5 359.5,335.5C 351.5,335.5 343.5,335.5 335.5,335.5C 335.5,327.5 335.5,319.5 335.5,311.5 Z"/></g>
<g><path style="opacity:1" fill="#ededed" d="M 23.5,311.5 C 31.5,311.5 39.5,311.5 47.5,311.5C 47.5,319.5 47.5,327.5 47.5,335.5C 39.5,335.5 31.5,335.5 23.5,335.5C 23.5,327.5 23.5,319.5 23.5,311.5 Z"/></g>
<g><path style="opacity:1" fill="#ededed" d="M 71.5,311.5 C 79.5,311.5 87.5,311.5 95.5,311.5C 95.5,319.5 95.5,327.5 95.5,335.5C 87.5,335.5 79.5,335.5 71.5,335.5C 71.5,327.5 71.5,319.5 71.5,311.5 Z"/></g>
<g><path style="opacity:1" fill="#ededed" d="M 119.5,311.5 C 127.5,311.5 135.5,311.5 143.5,311.5C 143.5,319.5 143.5,327.5 143.5,335.5C 135.5,335.5 127.5,335.5 119.5,335.5C 119.5,327.5 119.5,319.5 119.5,311.5 Z"/></g>
<g><path style="opacity:1" fill="#ededed" d="M 167.5,311.5 C 175.5,311.5 183.5,311.5 191.5,311.5C 191.5,319.5 191.5,327.5 191.5,335.5C 183.5,335.5 175.5,335.5 167.5,335.5C 167.5,327.5 167.5,319.5 167.5,311.5 Z"/></g>
<g><path style="opacity:1" fill="#ededed" d="M 215.5,311.5 C 223.5,311.5 231.5,311.5 239.5,311.5C 239.5,319.5 239.5,327.5 239.5,335.5C 231.5,335.5 223.5,335.5 215.5,335.5C 215.5,327.5 215.5,319.5 215.5,311.5 Z"/></g>
<g><path style="opacity:1" fill="#ededed" d="M 263.5,311.5 C 271.5,311.5 279.5,311.5 287.5,311.5C 287.5,319.5 287.5,327.5 287.5,335.5C 279.5,335.5 271.5,335.5 263.5,335.5C 263.5,327.5 263.5,319.5 263.5,311.5 Z"/></g>
<g><path style="opacity:1" fill="#ededed" d="M 311.5,311.5 C 319.5,311.5 327.5,311.5 335.5,311.5C 335.5,319.5 335.5,327.5 335.5,335.5C 327.5,335.5 319.5,335.5 311.5,335.5C 311.5,327.5 311.5,319.5 311.5,311.5 Z"/></g>
<g><path style="opacity:1" fill="#fefffe" d="M 23.5,335.5 C 31.5,335.5 39.5,335.5 47.5,335.5C 47.5,343.5 47.5,351.5 47.5,359.5C 39.5,359.5 31.5,359.5 23.5,359.5C 23.5,351.5 23.5,343.5 23.5,335.5 Z"/></g>
<g><path style="opacity:1" fill="#fefffe" d="M 71.5,335.5 C 79.5,335.5 87.5,335.5 95.5,335.5C 95.5,343.5 95.5,351.5 95.5,359.5C 87.5,359.5 79.5,359.5 71.5,359.5C 71.5,351.5 71.5,343.5 71.5,335.5 Z"/></g>
<g><path style="opacity:1" fill="#fefffe" d="M 119.5,335.5 C 127.5,335.5 135.5,335.5 143.5,335.5C 143.5,343.5 143.5,351.5 143.5,359.5C 135.5,359.5 127.5,359.5 119.5,359.5C 119.5,351.5 119.5,343.5 119.5,335.5 Z"/></g>
<g><path style="opacity:1" fill="#fefffe" d="M 167.5,335.5 C 175.5,335.5 183.5,335.5 191.5,335.5C 191.5,343.5 191.5,351.5 191.5,359.5C 183.5,359.5 175.5,359.5 167.5,359.5C 167.5,351.5 167.5,343.5 167.5,335.5 Z"/></g>
<g><path style="opacity:1" fill="#fefffe" d="M 215.5,335.5 C 223.5,335.5 231.5,335.5 239.5,335.5C 239.5,343.5 239.5,351.5 239.5,359.5C 231.5,359.5 223.5,359.5 215.5,359.5C 215.5,351.5 215.5,343.5 215.5,335.5 Z"/></g>
<g><path style="opacity:1" fill="#fefffe" d="M 263.5,335.5 C 271.5,335.5 279.5,335.5 287.5,335.5C 287.5,343.5 287.5,351.5 287.5,359.5C 279.5,359.5 271.5,359.5 263.5,359.5C 263.5,351.5 263.5,343.5 263.5,335.5 Z"/></g>
<g><path style="opacity:1" fill="#fefffe" d="M 311.5,335.5 C 319.5,335.5 327.5,335.5 335.5,335.5C 335.5,343.5 335.5,351.5 335.5,359.5C 327.5,359.5 319.5,359.5 311.5,359.5C 311.5,351.5 311.5,343.5 311.5,335.5 Z"/></g>
<g><path style="opacity:1" fill="#ededed" d="M -0.5,335.5 C 7.5,335.5 15.5,335.5 23.5,335.5C 23.5,343.5 23.5,351.5 23.5,359.5C 15.5,359.5 7.5,359.5 -0.5,359.5C -0.5,351.5 -0.5,343.5 -0.5,335.5 Z"/></g>
<g><path style="opacity:1" fill="#ededed" d="M 47.5,335.5 C 55.5,335.5 63.5,335.5 71.5,335.5C 71.5,343.5 71.5,351.5 71.5,359.5C 63.5,359.5 55.5,359.5 47.5,359.5C 47.5,351.5 47.5,343.5 47.5,335.5 Z"/></g>
<g><path style="opacity:1" fill="#ededed" d="M 95.5,335.5 C 103.5,335.5 111.5,335.5 119.5,335.5C 119.5,343.5 119.5,351.5 119.5,359.5C 111.5,359.5 103.5,359.5 95.5,359.5C 95.5,351.5 95.5,343.5 95.5,335.5 Z"/></g>
<g><path style="opacity:1" fill="#ededed" d="M 143.5,335.5 C 151.5,335.5 159.5,335.5 167.5,335.5C 167.5,343.5 167.5,351.5 167.5,359.5C 159.5,359.5 151.5,359.5 143.5,359.5C 143.5,351.5 143.5,343.5 143.5,335.5 Z"/></g>
<g><path style="opacity:1" fill="#ededed" d="M 191.5,335.5 C 199.5,335.5 207.5,335.5 215.5,335.5C 215.5,343.5 215.5,351.5 215.5,359.5C 207.5,359.5 199.5,359.5 191.5,359.5C 191.5,351.5 191.5,343.5 191.5,335.5 Z"/></g>
<g><path style="opacity:1" fill="#ededed" d="M 239.5,335.5 C 247.5,335.5 255.5,335.5 263.5,335.5C 263.5,343.5 263.5,351.5 263.5,359.5C 255.5,359.5 247.5,359.5 239.5,359.5C 239.5,351.5 239.5,343.5 239.5,335.5 Z"/></g>
<g><path style="opacity:1" fill="#ededed" d="M 287.5,335.5 C 295.5,335.5 303.5,335.5 311.5,335.5C 311.5,343.5 311.5,351.5 311.5,359.5C 303.5,359.5 295.5,359.5 287.5,359.5C 287.5,351.5 287.5,343.5 287.5,335.5 Z"/></g>
<g><path style="opacity:1" fill="#ededed" d="M 335.5,335.5 C 343.5,335.5 351.5,335.5 359.5,335.5C 359.5,343.5 359.5,351.5 359.5,359.5C 351.5,359.5 343.5,359.5 335.5,359.5C 335.5,351.5 335.5,343.5 335.5,335.5 Z"/></g>
</svg>
