<?xml version="1.0" encoding="UTF-8"?>
<!DOCTYPE svg PUBLIC "-//W3C//DTD SVG 1.1//EN" "http://www.w3.org/Graphics/SVG/1.1/DTD/svg11.dtd">
<svg xmlns="http://www.w3.org/2000/svg" version="1.1" width="360px" height="360px" style="shape-rendering:geometricPrecision; text-rendering:geometricPrecision; image-rendering:optimizeQuality; fill-rule:evenodd; clip-rule:evenodd" xmlns:xlink="http://www.w3.org/1999/xlink">
<g><path style="opacity:1" fill="#eeeeee" d="M -0.5,-0.5 C 7.16667,-0.5 14.8333,-0.5 22.5,-0.5C 22.6354,6.86249 22.3021,14.1958 21.5,21.5C 14.1912,22.2484 6.85784,22.5817 -0.5,22.5C -0.5,14.8333 -0.5,7.16667 -0.5,-0.5 Z"/></g>
<g><path style="opacity:1" fill="#fefefe" d="M 111.5,-0.5 C 119.167,-0.5 126.833,-0.5 134.5,-0.5C 134.334,6.8409 134.5,14.1742 135,21.5C 142,22.8333 149,22.8333 156,21.5C 156.5,14.1742 156.666,6.8409 156.5,-0.5C 164.167,-0.5 171.833,-0.5 179.5,-0.5C 179.5,7.16667 179.5,14.8333 179.5,22.5C 186.833,22.5 194.167,22.5 201.5,22.5C 201.5,29.8333 201.5,37.1667 201.5,44.5C 194.492,44.6663 187.492,44.4996 180.5,44C 179.833,37 179.167,30 178.5,23C 171.508,22.5004 164.508,22.3337 157.5,22.5C 157.5,29.8333 157.5,37.1667 157.5,44.5C 164.833,44.5 172.167,44.5 179.5,44.5C 179.666,52.1739 179.5,59.8406 179,67.5C 171.921,66.5201 164.755,66.1868 157.5,66.5C 157.797,59.4419 157.464,52.4419 156.5,45.5C 149.276,44.1879 142.109,44.1879 135,45.5C 134.5,52.4921 134.334,59.4921 134.5,66.5C 141.508,66.3337 148.508,66.5004 155.5,67C 156.167,74.3333 156.833,81.6667 157.5,89C 150.174,89.4997 142.841,89.6663 135.5,89.5C 135.167,89.5 134.833,89.5 134.5,89.5C 134.666,82.1591 134.5,74.8258 134,67.5C 126.587,66.5192 119.087,66.1858 111.5,66.5C 111.5,59.1667 111.5,51.8333 111.5,44.5C 118.841,44.6663 126.174,44.4997 133.5,44C 134.48,36.9213 134.813,29.7546 134.5,22.5C 126.854,21.793 119.187,21.4597 111.5,21.5C 111.5,14.1667 111.5,6.83333 111.5,-0.5 Z"/></g>
<g><path style="opacity:1" fill="#ededed" d="M 134.5,-0.5 C 141.833,-0.5 149.167,-0.5 156.5,-0.5C 156.666,6.8409 156.5,14.1742 156,21.5C 149,22.8333 142,22.8333 135,21.5C 134.5,14.1742 134.334,6.8409 134.5,-0.5 Z"/></g>
<g><path style="opacity:1" fill="#f6f6f6" d="M 224.5,-0.5 C 269.5,-0.5 314.5,-0.5 359.5,-0.5C 359.5,82.1667 359.5,164.833 359.5,247.5C 352.167,247.5 344.833,247.5 337.5,247.5C 337.5,239.833 337.5,232.167 337.5,224.5C 330.159,224.666 322.826,224.5 315.5,224C 314.742,216.881 314.075,209.714 313.5,202.5C 306.167,202.5 298.833,202.5 291.5,202.5C 291.187,209.755 291.52,216.921 292.5,224C 299.826,224.5 307.159,224.666 314.5,224.5C 314.5,232.167 314.5,239.833 314.5,247.5C 306.833,247.5 299.167,247.5 291.5,247.5C 284.167,246.167 276.833,246.167 269.5,247.5C 269.5,239.833 269.5,232.167 269.5,224.5C 267.167,224.5 264.833,224.5 262.5,224.5C 262.404,220.689 261.738,220.689 260.5,224.5C 259.818,223.757 259.151,223.091 258.5,222.5C 273.087,193.509 273.087,164.509 258.5,135.5C 259.09,134.234 259.59,132.901 260,131.5C 260.483,132.448 260.649,133.448 260.5,134.5C 263.448,134.223 266.281,134.556 269,135.5C 269.218,138.426 269.718,141.26 270.5,144C 269.531,149.126 269.031,154.293 269,159.5C 269.374,158.584 269.874,157.75 270.5,157C 277.492,156.5 284.492,156.334 291.5,156.5C 291.5,149.5 291.5,142.5 291.5,135.5C 292.491,142.313 292.825,149.313 292.5,156.5C 299.833,156.5 307.167,156.5 314.5,156.5C 314.334,149.492 314.5,142.492 315,135.5C 322.079,134.52 329.245,134.187 336.5,134.5C 336.666,126.826 336.5,119.159 336,111.5C 328.877,112.746 321.71,112.746 314.5,111.5C 314.5,119.167 314.5,126.833 314.5,134.5C 306.833,134.5 299.167,134.5 291.5,134.5C 284.167,134.5 276.833,134.5 269.5,134.5C 269.5,126.833 269.5,119.167 269.5,111.5C 276.833,111.5 284.167,111.5 291.5,111.5C 291.5,104.167 291.5,96.8333 291.5,89.5C 284.167,89.5 276.833,89.5 269.5,89.5C 269.666,82.1591 269.5,74.8258 269,67.5C 268.085,66.6721 267.419,65.6721 267,64.5C 260.789,66.4343 254.289,67.101 247.5,66.5C 247.5,59.1667 247.5,51.8333 247.5,44.5C 246.57,37.2229 246.236,29.8896 246.5,22.5C 239.745,22.7934 233.078,22.4601 226.5,21.5C 224.537,14.5762 223.87,7.24283 224.5,-0.5 Z"/></g>
<g><path style="opacity:1" fill="#fefefe" d="M 22.5,-0.5 C 29.8333,-0.5 37.1667,-0.5 44.5,-0.5C 44.5,7.16667 44.5,14.8333 44.5,22.5C 51.8333,22.5 59.1667,22.5 66.5,22.5C 66.5,29.8333 66.5,37.1667 66.5,44.5C 59.1667,44.5 51.8333,44.5 44.5,44.5C 44.5,51.8333 44.5,59.1667 44.5,66.5C 37.1667,66.5 29.8333,66.5 22.5,66.5C 22.3337,59.4921 22.5004,52.4921 23,45.5C 29.7529,44.686 36.5863,44.186 43.5,44C 44.8333,37 44.8333,30 43.5,23C 36.5079,22.5004 29.5079,22.3337 22.5,22.5C 22.5,29.8333 22.5,37.1667 22.5,44.5C 14.8333,44.5 7.16667,44.5 -0.5,44.5C -0.5,37.1667 -0.5,29.8333 -0.5,22.5C 6.85784,22.5817 14.1912,22.2484 21.5,21.5C 22.3021,14.1958 22.6354,6.86249 22.5,-0.5 Z"/></g>
<g><path style="opacity:1" fill="#fefefe" d="M 226.5,21.5 C 233.078,22.4601 239.745,22.7934 246.5,22.5C 246.236,29.8896 246.57,37.2229 247.5,44.5C 239.833,44.5 232.167,44.5 224.5,44.5C 224.5,51.8333 224.5,59.1667 224.5,66.5C 217.167,66.5 209.833,66.5 202.5,66.5C 202.5,59.1667 202.5,51.8333 202.5,44.5C 209.508,44.6663 216.508,44.4996 223.5,44C 224.314,37.2471 224.814,30.4137 225,23.5C 225.717,22.9558 226.217,22.2891 226.5,21.5 Z"/></g>
<g><path style="opacity:1" fill="#ededed" d="M 292.5,22.5 C 299.833,22.5 307.167,22.5 314.5,22.5C 314.334,29.5079 314.5,36.5079 315,43.5C 322.079,44.4799 329.245,44.8132 336.5,44.5C 336.5,51.8333 336.5,59.1667 336.5,66.5C 329.167,66.5 321.833,66.5 314.5,66.5C 314.5,59.1667 314.5,51.8333 314.5,44.5C 307.167,44.5 299.833,44.5 292.5,44.5C 292.285,37.327 292.285,29.9937 292.5,22.5 Z"/></g>
<g><path style="opacity:1" fill="#f1f1f1" d="M 44.5,-0.5 C 66.8333,-0.5 89.1667,-0.5 111.5,-0.5C 111.5,6.83333 111.5,14.1667 111.5,21.5C 119.187,21.4597 126.854,21.793 134.5,22.5C 134.813,29.7546 134.48,36.9213 133.5,44C 126.174,44.4997 118.841,44.6663 111.5,44.5C 111.5,51.8333 111.5,59.1667 111.5,66.5C 119.087,66.1858 126.587,66.5192 134,67.5C 134.5,74.8258 134.666,82.1591 134.5,89.5C 126.833,89.5 119.167,89.5 111.5,89.5C 111.5,82.1667 111.5,74.8333 111.5,67.5C 104.167,67.5 96.8333,67.5 89.5,67.5C 89.8303,74.5316 89.497,81.5316 88.5,88.5C 81.5581,89.4637 74.5581,89.797 67.5,89.5C 67.5,96.8333 67.5,104.167 67.5,111.5C 74.7143,112.075 81.881,112.742 89,113.5C 89.4996,120.492 89.6663,127.492 89.5,134.5C 82.1667,134.5 74.8333,134.5 67.5,134.5C 66.6423,126.868 66.3089,119.201 66.5,111.5C 59.1667,111.5 51.8333,111.5 44.5,111.5C 44.5,119.5 44.5,127.5 44.5,135.5C 37.1964,134.834 29.8631,134.167 22.5,133.5C 21.5027,126.197 21.1694,118.863 21.5,111.5C 14.1667,111.5 6.83333,111.5 -0.5,111.5C -0.5,89.1667 -0.5,66.8333 -0.5,44.5C 7.16667,44.5 14.8333,44.5 22.5,44.5C 22.5,37.1667 22.5,29.8333 22.5,22.5C 29.5079,22.3337 36.5079,22.5004 43.5,23C 44.8333,30 44.8333,37 43.5,44C 36.5863,44.186 29.7529,44.686 23,45.5C 22.5004,52.4921 22.3337,59.4921 22.5,66.5C 29.8333,66.5 37.1667,66.5 44.5,66.5C 44.5,59.1667 44.5,51.8333 44.5,44.5C 51.8333,44.5 59.1667,44.5 66.5,44.5C 66.5,37.1667 66.5,29.8333 66.5,22.5C 59.1667,22.5 51.8333,22.5 44.5,22.5C 44.5,14.8333 44.5,7.16667 44.5,-0.5 Z"/></g>
<g><path style="opacity:1" fill="#f2f2f2" d="M 179.5,-0.5 C 194.5,-0.5 209.5,-0.5 224.5,-0.5C 223.87,7.24283 224.537,14.5762 226.5,21.5C 226.217,22.2891 225.717,22.9558 225,23.5C 224.814,30.4137 224.314,37.2471 223.5,44C 216.508,44.4996 209.508,44.6663 202.5,44.5C 202.5,51.8333 202.5,59.1667 202.5,66.5C 209.833,66.5 217.167,66.5 224.5,66.5C 224.5,59.1667 224.5,51.8333 224.5,44.5C 232.167,44.5 239.833,44.5 247.5,44.5C 247.5,51.8333 247.5,59.1667 247.5,66.5C 254.289,67.101 260.789,66.4343 267,64.5C 267.419,65.6721 268.085,66.6721 269,67.5C 269.5,74.8258 269.666,82.1591 269.5,89.5C 276.833,89.5 284.167,89.5 291.5,89.5C 291.5,96.8333 291.5,104.167 291.5,111.5C 284.167,111.5 276.833,111.5 269.5,111.5C 269.5,119.167 269.5,126.833 269.5,134.5C 276.833,134.5 284.167,134.5 291.5,134.5C 291.5,134.833 291.5,135.167 291.5,135.5C 291.5,142.5 291.5,149.5 291.5,156.5C 284.492,156.334 277.492,156.5 270.5,157C 269.874,157.75 269.374,158.584 269,159.5C 269.031,154.293 269.531,149.126 270.5,144C 269.718,141.26 269.218,138.426 269,135.5C 266.281,134.556 263.448,134.223 260.5,134.5C 260.649,133.448 260.483,132.448 260,131.5C 259.59,132.901 259.09,134.234 258.5,135.5C 254.307,127.968 248.973,121.301 242.5,115.5C 220.33,94.5312 193.997,86.3646 163.5,91C 154.445,92.7407 145.778,95.5741 137.5,99.5C 136.811,98.2264 135.977,98.2264 135,99.5C 134.253,96.0764 134.42,92.7431 135.5,89.5C 142.841,89.6663 150.174,89.4997 157.5,89C 156.833,81.6667 156.167,74.3333 155.5,67C 148.508,66.5004 141.508,66.3337 134.5,66.5C 134.334,59.4921 134.5,52.4921 135,45.5C 142.109,44.1879 149.276,44.1879 156.5,45.5C 157.464,52.4419 157.797,59.4419 157.5,66.5C 164.755,66.1868 171.921,66.5201 179,67.5C 179.5,59.8406 179.666,52.1739 179.5,44.5C 172.167,44.5 164.833,44.5 157.5,44.5C 157.5,37.1667 157.5,29.8333 157.5,22.5C 164.508,22.3337 171.508,22.5004 178.5,23C 179.167,30 179.833,37 180.5,44C 187.492,44.4996 194.492,44.6663 201.5,44.5C 201.5,37.1667 201.5,29.8333 201.5,22.5C 194.167,22.5 186.833,22.5 179.5,22.5C 179.5,14.8333 179.5,7.16667 179.5,-0.5 Z"/></g>
<g><path style="opacity:1" fill="#fefefe" d="M 44.5,111.5 C 37.5361,112.553 30.5361,112.72 23.5,112C 22.5192,104.587 22.1858,97.0871 22.5,89.5C 29.5316,89.8303 36.5316,89.497 43.5,88.5C 44.4637,81.5581 44.797,74.5581 44.5,67.5C 51.8333,67.5 59.1667,67.5 66.5,67.5C 66.5,74.8333 66.5,82.1667 66.5,89.5C 59.1667,89.5 51.8333,89.5 44.5,89.5C 44.5,96.8333 44.5,104.167 44.5,111.5 Z"/></g>
<g><path style="opacity:1" fill="#201d1e" d="M 242.5,115.5 C 241.618,117.384 240.118,118.717 238,119.5C 237.692,118.692 237.192,118.025 236.5,117.5C 236.167,118.167 235.833,118.833 235.5,119.5C 232.539,118.817 232.205,117.984 234.5,117C 233.552,116.517 232.552,116.351 231.5,116.5C 231.736,119.226 230.903,121.559 229,123.5C 226.702,122.554 224.868,123.221 223.5,125.5C 217.652,122.188 211.319,120.688 204.5,121C 185.833,120.333 167.167,120.333 148.5,121C 142.567,121.803 137.234,123.97 132.5,127.5C 131.679,126.148 130.846,124.481 130,122.5C 131.77,123.276 133.603,123.11 135.5,122C 134.874,121.25 134.374,120.416 134,119.5C 133,122.167 132,122.167 131,119.5C 130.577,120.956 129.744,121.456 128.5,121C 127.62,119.644 127.286,118.144 127.5,116.5C 125.857,116.52 124.524,115.853 123.5,114.5C 121.468,115.819 119.468,115.819 117.5,114.5C 123.601,108.731 130.268,103.731 137.5,99.5C 145.778,95.5741 154.445,92.7407 163.5,91C 193.997,86.3646 220.33,94.5312 242.5,115.5 Z"/></g>
<g><path style="opacity:1" fill="#fcfcfc" d="M 111.5,89.5 C 119.167,89.5 126.833,89.5 134.5,89.5C 134.833,89.5 135.167,89.5 135.5,89.5C 134.42,92.7431 134.253,96.0764 135,99.5C 135.977,98.2264 136.811,98.2264 137.5,99.5C 130.268,103.731 123.601,108.731 117.5,114.5C 109.468,121.576 103.134,129.909 98.5,139.5C 98.2283,137.771 98.2283,136.105 98.5,134.5C 95.7418,134.381 92.9084,134.715 90,135.5C 89.5004,142.492 89.3337,149.492 89.5,156.5C 82.1667,156.5 74.8333,156.5 67.5,156.5C 67.5,149.167 67.5,141.833 67.5,134.5C 74.8333,134.5 82.1667,134.5 89.5,134.5C 89.6663,127.492 89.4996,120.492 89,113.5C 81.881,112.742 74.7143,112.075 67.5,111.5C 67.5,104.167 67.5,96.8333 67.5,89.5C 74.5581,89.797 81.5581,89.4637 88.5,88.5C 89.497,81.5316 89.8303,74.5316 89.5,67.5C 96.8333,67.5 104.167,67.5 111.5,67.5C 111.5,74.8333 111.5,82.1667 111.5,89.5 Z"/></g>
<g><path style="opacity:1" fill="#ededed" d="M 111.5,89.5 C 111.5,96.8333 111.5,104.167 111.5,111.5C 104.167,111.5 96.8333,111.5 89.5,111.5C 89.5,104.167 89.5,96.8333 89.5,89.5C 96.8333,89.5 104.167,89.5 111.5,89.5 Z"/></g>
<g><path style="opacity:1" fill="#f7f6f6" d="M 223.5,125.5 C 224.167,126.167 224.833,126.833 225.5,127.5C 225.631,128.376 225.298,129.043 224.5,129.5C 223.227,129.254 222.06,129.254 221,129.5C 220.517,130.448 220.351,131.448 220.5,132.5C 224.64,131.956 225.307,132.956 222.5,135.5C 218.86,132.846 214.86,131.013 210.5,130C 189.162,128.125 167.828,128.125 146.5,130C 134.04,134.411 128.207,143.244 129,156.5C 128.202,175.188 128.535,193.855 130,212.5C 130.986,215.806 132.486,218.806 134.5,221.5C 134.414,222.496 134.748,223.329 135.5,224C 133.257,225.136 130.924,225.97 128.5,226.5C 126.457,225.421 125.124,223.754 124.5,221.5C 122.641,218.088 121.474,214.422 121,210.5C 119.038,188.832 119.038,167.165 121,145.5C 123.085,138.317 126.918,132.317 132.5,127.5C 137.234,123.97 142.567,121.803 148.5,121C 167.167,120.333 185.833,120.333 204.5,121C 211.319,120.688 217.652,122.188 223.5,125.5 Z"/></g>
<g><path style="opacity:1" fill="#211e1e" d="M 117.5,114.5 C 119.468,115.819 121.468,115.819 123.5,114.5C 124.524,115.853 125.857,116.52 127.5,116.5C 127.286,118.144 127.62,119.644 128.5,121C 129.744,121.456 130.577,120.956 131,119.5C 132,122.167 133,122.167 134,119.5C 134.374,120.416 134.874,121.25 135.5,122C 133.603,123.11 131.77,123.276 130,122.5C 130.846,124.481 131.679,126.148 132.5,127.5C 126.918,132.317 123.085,138.317 121,145.5C 119.038,167.165 119.038,188.832 121,210.5C 121.474,214.422 122.641,218.088 124.5,221.5C 123.233,224.529 121.566,227.363 119.5,230C 121.878,230.974 121.544,231.641 118.5,232C 115.015,239.379 113.515,239.212 114,231.5C 112.668,233.758 111.834,235.758 111.5,237.5C 107.071,233.407 103.404,228.741 100.5,223.5C 91.0452,204.205 87.7118,183.871 90.5,162.5C 92.7398,154.784 95.4065,147.118 98.5,139.5C 103.134,129.909 109.468,121.576 117.5,114.5 Z"/></g>
<g><path style="opacity:1" fill="#211d1e" d="M 242.5,115.5 C 248.973,121.301 254.307,127.968 258.5,135.5C 273.087,164.509 273.087,193.509 258.5,222.5C 255.278,228.721 251.278,234.388 246.5,239.5C 245.178,239.33 244.011,239.663 243,240.5C 240.81,237.751 239.143,238.085 238,241.5C 237.667,240.833 237.333,240.167 237,239.5C 234.283,242.036 231.783,241.703 229.5,238.5C 228.833,237.167 228.167,235.833 227.5,234.5C 228.326,233.549 228.492,232.549 228,231.5C 223.911,236.148 218.744,238.815 212.5,239.5C 209.375,238.521 206.042,238.187 202.5,238.5C 219.148,238.748 230.648,231.081 237,215.5C 239.846,192.548 240.179,169.548 238,146.5C 236.323,138.465 232.156,132.132 225.5,127.5C 224.833,126.833 224.167,126.167 223.5,125.5C 224.868,123.221 226.702,122.554 229,123.5C 230.903,121.559 231.736,119.226 231.5,116.5C 232.552,116.351 233.552,116.517 234.5,117C 232.205,117.984 232.539,118.817 235.5,119.5C 235.833,118.833 236.167,118.167 236.5,117.5C 237.192,118.025 237.692,118.692 238,119.5C 240.118,118.717 241.618,117.384 242.5,115.5 Z"/></g>
<g><path style="opacity:1" fill="#f6f5f6" d="M 225.5,127.5 C 232.156,132.132 236.323,138.465 238,146.5C 240.179,169.548 239.846,192.548 237,215.5C 230.648,231.081 219.148,238.748 202.5,238.5C 184.497,238.667 166.497,238.5 148.5,238C 142.567,237.197 137.234,235.03 132.5,231.5C 131.167,229.833 129.833,228.167 128.5,226.5C 130.924,225.97 133.257,225.136 135.5,224C 134.748,223.329 134.414,222.496 134.5,221.5C 138.227,225.031 142.561,227.531 147.5,229C 168.501,230.972 189.501,230.972 210.5,229C 220.218,226.949 226.385,221.116 229,211.5C 230.967,189.502 230.967,167.502 229,145.5C 227.569,141.626 225.403,138.293 222.5,135.5C 225.307,132.956 224.64,131.956 220.5,132.5C 220.351,131.448 220.517,130.448 221,129.5C 222.06,129.254 223.227,129.254 224.5,129.5C 225.298,129.043 225.631,128.376 225.5,127.5 Z"/></g>
<g><path style="opacity:1" fill="#f3f3f3" d="M 44.5,111.5 C 51.8333,111.5 59.1667,111.5 66.5,111.5C 66.3089,119.201 66.6423,126.868 67.5,134.5C 67.5,141.833 67.5,149.167 67.5,156.5C 74.8333,156.5 82.1667,156.5 89.5,156.5C 89.3337,149.492 89.5004,142.492 90,135.5C 92.9084,134.715 95.7418,134.381 98.5,134.5C 98.2283,136.105 98.2283,137.771 98.5,139.5C 95.4065,147.118 92.7398,154.784 90.5,162.5C 90.631,161.761 90.4643,161.094 90,160.5C 88.6921,166.771 87.8588,173.104 87.5,179.5C 80.8333,179.5 74.1667,179.5 67.5,179.5C 67.5,186.833 67.5,194.167 67.5,201.5C 74.4222,201.188 81.2555,201.521 88,202.5C 88.9147,201.672 89.5814,200.672 90,199.5C 90.0187,207.279 89.6854,215.279 89,223.5C 82,224.167 75,224.833 68,225.5C 67.5003,232.826 67.3337,240.159 67.5,247.5C 74.8333,247.5 82.1667,247.5 89.5,247.5C 96.7463,246.536 104.08,246.203 111.5,246.5C 111.84,243.856 111.173,241.523 109.5,239.5C 109.957,238.702 110.624,238.369 111.5,238.5C 119.399,247.74 128.732,255.074 139.5,260.5C 138.417,260.539 137.417,260.873 136.5,261.5C 135.808,260.975 135.308,260.308 135,259.5C 134.502,262.817 134.335,266.15 134.5,269.5C 126.833,269.5 119.167,269.5 111.5,269.5C 111.5,276.833 111.5,284.167 111.5,291.5C 119.167,291.5 126.833,291.5 134.5,291.5C 134.5,299.167 134.5,306.833 134.5,314.5C 126.833,314.5 119.167,314.5 111.5,314.5C 112.796,307.499 112.796,300.499 111.5,293.5C 104.144,292.767 96.8102,292.1 89.5,291.5C 89.5,284.167 89.5,276.833 89.5,269.5C 82.1667,269.5 74.8333,269.5 67.5,269.5C 66.7516,262.191 66.4183,254.858 66.5,247.5C 58.9865,247.376 51.6532,247.376 44.5,247.5C 44.5,239.833 44.5,232.167 44.5,224.5C 51.8333,224.5 59.1667,224.5 66.5,224.5C 66.5,217.167 66.5,209.833 66.5,202.5C 59.1667,202.5 51.8333,202.5 44.5,202.5C 37.2537,201.536 29.9204,201.203 22.5,201.5C 22.3337,194.492 22.5004,187.492 23,180.5C 30.0787,179.52 37.2454,179.187 44.5,179.5C 44.5,171.833 44.5,164.167 44.5,156.5C 44.5,149.5 44.5,142.5 44.5,135.5C 44.5,127.5 44.5,119.5 44.5,111.5 Z"/></g>
<g><path style="opacity:1" fill="#211e1f" d="M 222.5,135.5 C 225.403,138.293 227.569,141.626 229,145.5C 230.967,167.502 230.967,189.502 229,211.5C 226.385,221.116 220.218,226.949 210.5,229C 189.501,230.972 168.501,230.972 147.5,229C 142.561,227.531 138.227,225.031 134.5,221.5C 132.486,218.806 130.986,215.806 130,212.5C 128.535,193.855 128.202,175.188 129,156.5C 128.207,143.244 134.04,134.411 146.5,130C 167.828,128.125 189.162,128.125 210.5,130C 214.86,131.013 218.86,132.846 222.5,135.5 Z"/></g>
<g><path style="opacity:1" fill="#fefefe" d="M -0.5,111.5 C 6.83333,111.5 14.1667,111.5 21.5,111.5C 21.1694,118.863 21.5027,126.197 22.5,133.5C 29.8631,134.167 37.1964,134.834 44.5,135.5C 44.5,142.5 44.5,149.5 44.5,156.5C 37.1667,156.5 29.8333,156.5 22.5,156.5C 22.5,149.167 22.5,141.833 22.5,134.5C 14.8333,134.5 7.16667,134.5 -0.5,134.5C -0.5,126.833 -0.5,119.167 -0.5,111.5 Z"/></g>
<g><path style="opacity:1" fill="#fefefe" d="M 291.5,135.5 C 291.5,135.167 291.5,134.833 291.5,134.5C 299.167,134.5 306.833,134.5 314.5,134.5C 314.5,126.833 314.5,119.167 314.5,111.5C 321.71,112.746 328.877,112.746 336,111.5C 336.5,119.159 336.666,126.826 336.5,134.5C 329.245,134.187 322.079,134.52 315,135.5C 314.5,142.492 314.334,149.492 314.5,156.5C 307.167,156.5 299.833,156.5 292.5,156.5C 292.825,149.313 292.491,142.313 291.5,135.5 Z"/></g>
<g><path style="opacity:1" fill="#f7f7f7" d="M 209.5,140.5 C 217.516,140.19 220.183,143.856 217.5,151.5C 209.465,155.869 205.632,153.535 206,144.5C 207.032,142.973 208.199,141.64 209.5,140.5 Z"/></g>
<g><path style="opacity:1" fill="#f3f2f2" d="M 174.5,148.5 C 195.789,148.126 207.789,158.46 210.5,179.5C 208.404,198.429 197.904,208.763 179,210.5C 160.608,208.275 150.442,197.942 148.5,179.5C 149.981,163.027 158.648,152.694 174.5,148.5 Z"/></g>
<g><path style="opacity:1" fill="#fefefe" d="M -0.5,157.5 C 6.83333,157.5 14.1667,157.5 21.5,157.5C 21.5,164.833 21.5,172.167 21.5,179.5C 14.1667,179.5 6.83333,179.5 -0.5,179.5C -0.5,172.167 -0.5,164.833 -0.5,157.5 Z"/></g>
<g><path style="opacity:1" fill="#211d1e" d="M 175.5,157.5 C 188.441,156.621 196.941,162.288 201,174.5C 202.051,193.239 193.217,202.072 174.5,201C 161.789,196.758 156.289,187.924 158,174.5C 160.458,165.207 166.291,159.54 175.5,157.5 Z"/></g>
<g><path style="opacity:1" fill="#efefef" d="M -0.5,134.5 C 7.16667,134.5 14.8333,134.5 22.5,134.5C 22.5,141.833 22.5,149.167 22.5,156.5C 29.8333,156.5 37.1667,156.5 44.5,156.5C 44.5,164.167 44.5,171.833 44.5,179.5C 37.2454,179.187 30.0787,179.52 23,180.5C 22.5004,187.492 22.3337,194.492 22.5,201.5C 29.9204,201.203 37.2537,201.536 44.5,202.5C 44.6663,209.508 44.4996,216.508 44,223.5C 36.9213,224.48 29.7546,224.813 22.5,224.5C 22.5,232.167 22.5,239.833 22.5,247.5C 28.9596,248.097 35.1263,247.43 41,245.5C 41.7096,246.973 42.8762,247.64 44.5,247.5C 44.5,254.833 44.5,262.167 44.5,269.5C 37.1667,269.5 29.8333,269.5 22.5,269.5C 22.5,276.833 22.5,284.167 22.5,291.5C 29.8333,291.5 37.1667,291.5 44.5,291.5C 44.203,284.442 44.5363,277.442 45.5,270.5C 52.5,269.167 59.5,269.167 66.5,270.5C 67.4637,277.442 67.797,284.442 67.5,291.5C 74.8333,291.5 82.1667,291.5 89.5,291.5C 89.5,299.167 89.5,306.833 89.5,314.5C 82.4921,314.334 75.4921,314.5 68.5,315C 67.5201,322.079 67.1868,329.245 67.5,336.5C 68.5,336.5 69.5,336.5 70.5,336.5C 69.791,337.404 68.791,337.737 67.5,337.5C 67.5,344.833 67.5,352.167 67.5,359.5C 67.1667,359.5 66.8333,359.5 66.5,359.5C 66.5,352.167 66.5,344.833 66.5,337.5C 59.8333,337.5 53.1667,337.5 46.5,337.5C 52.979,336.509 59.6457,336.176 66.5,336.5C 66.5,329.167 66.5,321.833 66.5,314.5C 66.5,307.167 66.5,299.833 66.5,292.5C 59.1667,292.5 51.8333,292.5 44.5,292.5C 37.1667,292.5 29.8333,292.5 22.5,292.5C 22.5,299.833 22.5,307.167 22.5,314.5C 22.5,315.5 22.5,316.5 22.5,317.5C 21.596,316.791 21.2627,315.791 21.5,314.5C 21.5,307.167 21.5,299.833 21.5,292.5C 14.1667,292.5 6.83333,292.5 -0.5,292.5C -0.5,284.833 -0.5,277.167 -0.5,269.5C 6.83333,269.5 14.1667,269.5 21.5,269.5C 21.5,262.167 21.5,254.833 21.5,247.5C 14.1667,247.5 6.83333,247.5 -0.5,247.5C -0.5,239.833 -0.5,232.167 -0.5,224.5C 6.83333,224.5 14.1667,224.5 21.5,224.5C 21.5,217.167 21.5,209.833 21.5,202.5C 14.1667,202.5 6.83333,202.5 -0.5,202.5C -0.5,194.833 -0.5,187.167 -0.5,179.5C 6.83333,179.5 14.1667,179.5 21.5,179.5C 21.5,172.167 21.5,164.833 21.5,157.5C 14.1667,157.5 6.83333,157.5 -0.5,157.5C -0.5,149.833 -0.5,142.167 -0.5,134.5 Z"/></g>
<g><path style="opacity:1" fill="#fefefe" d="M -0.5,202.5 C 6.83333,202.5 14.1667,202.5 21.5,202.5C 21.5,209.833 21.5,217.167 21.5,224.5C 14.1667,224.5 6.83333,224.5 -0.5,224.5C -0.5,217.167 -0.5,209.833 -0.5,202.5 Z"/></g>
<g><path style="opacity:1" fill="#fefefe" d="M 44.5,202.5 C 51.8333,202.5 59.1667,202.5 66.5,202.5C 66.5,209.833 66.5,217.167 66.5,224.5C 59.1667,224.5 51.8333,224.5 44.5,224.5C 44.5,232.167 44.5,239.833 44.5,247.5C 42.8762,247.64 41.7096,246.973 41,245.5C 35.1263,247.43 28.9596,248.097 22.5,247.5C 22.5,239.833 22.5,232.167 22.5,224.5C 29.7546,224.813 36.9213,224.48 44,223.5C 44.4996,216.508 44.6663,209.508 44.5,202.5 Z"/></g>
<g><path style="opacity:1" fill="#fdfdfd" d="M 90.5,162.5 C 87.7118,183.871 91.0452,204.205 100.5,223.5C 97.0381,224.482 93.3714,224.815 89.5,224.5C 89.5,232.167 89.5,239.833 89.5,247.5C 82.1667,247.5 74.8333,247.5 67.5,247.5C 67.3337,240.159 67.5003,232.826 68,225.5C 75,224.833 82,224.167 89,223.5C 89.6854,215.279 90.0187,207.279 90,199.5C 89.5814,200.672 88.9147,201.672 88,202.5C 81.2555,201.521 74.4222,201.188 67.5,201.5C 67.5,194.167 67.5,186.833 67.5,179.5C 74.1667,179.5 80.8333,179.5 87.5,179.5C 87.8588,173.104 88.6921,166.771 90,160.5C 90.4643,161.094 90.631,161.761 90.5,162.5 Z"/></g>
<g><path style="opacity:1" fill="#ededed" d="M 100.5,223.5 C 103.404,228.741 107.071,233.407 111.5,237.5C 111.5,237.833 111.5,238.167 111.5,238.5C 110.624,238.369 109.957,238.702 109.5,239.5C 111.173,241.523 111.84,243.856 111.5,246.5C 104.08,246.203 96.7463,246.536 89.5,247.5C 89.5,239.833 89.5,232.167 89.5,224.5C 93.3714,224.815 97.0381,224.482 100.5,223.5 Z"/></g>
<g><path style="opacity:1" fill="#221e1f" d="M 124.5,221.5 C 125.124,223.754 126.457,225.421 128.5,226.5C 129.833,228.167 131.167,229.833 132.5,231.5C 132.062,231.435 131.728,231.601 131.5,232C 132.5,233 133.5,234 134.5,235C 133.833,235.333 133.167,235.667 132.5,236C 133.899,236.595 135.232,236.428 136.5,235.5C 139.28,237.117 142.28,238.284 145.5,239C 167.822,240.814 190.155,240.981 212.5,239.5C 218.744,238.815 223.911,236.148 228,231.5C 228.492,232.549 228.326,233.549 227.5,234.5C 228.167,235.833 228.833,237.167 229.5,238.5C 231.783,241.703 234.283,242.036 237,239.5C 237.333,240.167 237.667,240.833 238,241.5C 239.143,238.085 240.81,237.751 243,240.5C 244.011,239.663 245.178,239.33 246.5,239.5C 239.079,247.368 230.746,254.035 221.5,259.5C 215.423,261.881 209.423,264.215 203.5,266.5C 181.44,271.872 160.106,269.872 139.5,260.5C 128.732,255.074 119.399,247.74 111.5,238.5C 111.5,238.167 111.5,237.833 111.5,237.5C 111.834,235.758 112.668,233.758 114,231.5C 113.515,239.212 115.015,239.379 118.5,232C 121.544,231.641 121.878,230.974 119.5,230C 121.566,227.363 123.233,224.529 124.5,221.5 Z"/></g>
<g><path style="opacity:1" fill="#0d0b0b" d="M 132.5,231.5 C 137.234,235.03 142.567,237.197 148.5,238C 166.497,238.5 184.497,238.667 202.5,238.5C 206.042,238.187 209.375,238.521 212.5,239.5C 190.155,240.981 167.822,240.814 145.5,239C 142.28,238.284 139.28,237.117 136.5,235.5C 135.232,236.428 133.899,236.595 132.5,236C 133.167,235.667 133.833,235.333 134.5,235C 133.5,234 132.5,233 131.5,232C 131.728,231.601 132.062,231.435 132.5,231.5 Z"/></g>
<g><path style="opacity:1" fill="#fcfcfc" d="M 269.5,247.5 C 276.833,246.167 284.167,246.167 291.5,247.5C 291.5,254.833 291.5,262.167 291.5,269.5C 284.492,269.334 277.492,269.5 270.5,270C 269.52,277.079 269.187,284.245 269.5,291.5C 275.842,291.334 282.175,291.5 288.5,292C 290.291,292.415 291.624,293.415 292.5,295C 292.112,301.697 291.112,308.197 289.5,314.5C 283.132,314.83 276.798,314.496 270.5,313.5C 269.536,306.558 269.203,299.558 269.5,292.5C 262.167,292.5 254.833,292.5 247.5,292.5C 247.5,299.167 247.5,305.833 247.5,312.5C 246.509,306.021 246.176,299.354 246.5,292.5C 239.313,292.825 232.313,292.491 225.5,291.5C 232.5,291.5 239.5,291.5 246.5,291.5C 246.5,284.167 246.5,276.833 246.5,269.5C 238.981,269.175 231.648,269.508 224.5,270.5C 223.833,270.5 223.5,270.167 223.5,269.5C 224.492,266.221 224.659,262.888 224,259.5C 223.023,260.774 222.189,260.774 221.5,259.5C 230.746,254.035 239.079,247.368 246.5,239.5C 251.278,234.388 255.278,228.721 258.5,222.5C 259.151,223.091 259.818,223.757 260.5,224.5C 261.738,220.689 262.404,220.689 262.5,224.5C 264.833,224.5 267.167,224.5 269.5,224.5C 269.5,232.167 269.5,239.833 269.5,247.5 Z"/></g>
<g><path style="opacity:1" fill="#fefefe" d="M -0.5,247.5 C 6.83333,247.5 14.1667,247.5 21.5,247.5C 21.5,254.833 21.5,262.167 21.5,269.5C 14.1667,269.5 6.83333,269.5 -0.5,269.5C -0.5,262.167 -0.5,254.833 -0.5,247.5 Z"/></g>
<g><path style="opacity:1" fill="#ededed" d="M 359.5,247.5 C 359.5,254.833 359.5,262.167 359.5,269.5C 351.833,269.5 344.167,269.5 336.5,269.5C 336.205,276.588 336.538,283.588 337.5,290.5C 336.833,290.5 336.5,290.833 336.5,291.5C 336.167,291.5 335.833,291.5 335.5,291.5C 328.5,291.5 321.5,291.5 314.5,291.5C 314.334,284.492 314.5,277.492 315,270.5C 321.753,269.686 328.586,269.186 335.5,269C 336.833,261.667 336.833,254.333 335.5,247C 328.42,246.205 321.42,246.372 314.5,247.5C 314.5,239.833 314.5,232.167 314.5,224.5C 307.159,224.666 299.826,224.5 292.5,224C 291.52,216.921 291.187,209.755 291.5,202.5C 298.833,202.5 306.167,202.5 313.5,202.5C 314.075,209.714 314.742,216.881 315.5,224C 322.826,224.5 330.159,224.666 337.5,224.5C 337.5,232.167 337.5,239.833 337.5,247.5C 344.833,247.5 352.167,247.5 359.5,247.5 Z"/></g>
<g><path style="opacity:1" fill="#ededed" d="M 269.5,247.5 C 269.5,254.833 269.5,262.167 269.5,269.5C 262.167,269.5 254.833,269.5 247.5,269.5C 247.5,262.167 247.5,254.833 247.5,247.5C 254.833,247.5 262.167,247.5 269.5,247.5 Z"/></g>
<g><path style="opacity:1" fill="#fdfdfd" d="M 139.5,260.5 C 160.106,269.872 181.44,271.872 203.5,266.5C 203.047,267.458 202.381,268.292 201.5,269C 194.164,269.9 186.831,270.733 179.5,271.5C 179.5,278.167 179.5,284.833 179.5,291.5C 186.833,291.5 194.167,291.5 201.5,291.5C 201.203,284.442 201.536,277.442 202.5,270.5C 209.468,269.503 216.468,269.17 223.5,269.5C 223.5,270.167 223.833,270.5 224.5,270.5C 224.5,277.5 224.5,284.5 224.5,291.5C 224.5,291.833 224.5,292.167 224.5,292.5C 217.167,292.5 209.833,292.5 202.5,292.5C 202.5,299.5 202.5,306.5 202.5,313.5C 204.099,313.232 205.432,313.566 206.5,314.5C 205.178,314.33 204.011,314.663 203,315.5C 202.5,322.492 202.334,329.492 202.5,336.5C 209.687,336.175 216.687,336.509 223.5,337.5C 216.5,337.5 209.5,337.5 202.5,337.5C 202.5,344.833 202.5,352.167 202.5,359.5C 194.833,359.5 187.167,359.5 179.5,359.5C 179.5,352.167 179.5,344.833 179.5,337.5C 172.167,337.5 164.833,337.5 157.5,337.5C 157.5,344.833 157.5,352.167 157.5,359.5C 149.833,359.5 142.167,359.5 134.5,359.5C 134.5,351.833 134.5,344.167 134.5,336.5C 141.833,336.5 149.167,336.5 156.5,336.5C 156.666,329.492 156.5,322.492 156,315.5C 148.921,314.52 141.755,314.187 134.5,314.5C 134.5,306.833 134.5,299.167 134.5,291.5C 126.833,291.5 119.167,291.5 111.5,291.5C 111.5,284.167 111.5,276.833 111.5,269.5C 119.167,269.5 126.833,269.5 134.5,269.5C 134.335,266.15 134.502,262.817 135,259.5C 135.308,260.308 135.808,260.975 136.5,261.5C 137.417,260.873 138.417,260.539 139.5,260.5 Z"/></g>
<g><path style="opacity:1" fill="#fefefe" d="M 89.5,291.5 C 82.1667,291.5 74.8333,291.5 67.5,291.5C 67.797,284.442 67.4637,277.442 66.5,270.5C 59.5,269.167 52.5,269.167 45.5,270.5C 44.5363,277.442 44.203,284.442 44.5,291.5C 37.1667,291.5 29.8333,291.5 22.5,291.5C 22.5,284.167 22.5,276.833 22.5,269.5C 29.8333,269.5 37.1667,269.5 44.5,269.5C 44.5,262.167 44.5,254.833 44.5,247.5C 51.6532,247.376 58.9865,247.376 66.5,247.5C 66.4183,254.858 66.7516,262.191 67.5,269.5C 74.8333,269.5 82.1667,269.5 89.5,269.5C 89.5,276.833 89.5,284.167 89.5,291.5 Z"/></g>
<g><path style="opacity:1" fill="#ededed" d="M 221.5,259.5 C 222.189,260.774 223.023,260.774 224,259.5C 224.659,262.888 224.492,266.221 223.5,269.5C 216.468,269.17 209.468,269.503 202.5,270.5C 201.536,277.442 201.203,284.442 201.5,291.5C 194.167,291.5 186.833,291.5 179.5,291.5C 179.5,284.833 179.5,278.167 179.5,271.5C 186.831,270.733 194.164,269.9 201.5,269C 202.381,268.292 203.047,267.458 203.5,266.5C 209.423,264.215 215.423,261.881 221.5,259.5 Z"/></g>
<g><path style="opacity:1" fill="#ededed" d="M 225.5,291.5 C 225.167,291.5 224.833,291.5 224.5,291.5C 224.5,284.5 224.5,277.5 224.5,270.5C 231.648,269.508 238.981,269.175 246.5,269.5C 246.5,276.833 246.5,284.167 246.5,291.5C 239.5,291.5 232.5,291.5 225.5,291.5 Z"/></g>
<g><path style="opacity:1" fill="#fefefe" d="M 314.5,291.5 C 307.167,291.5 299.833,291.5 292.5,291.5C 292.5,284.167 292.5,276.833 292.5,269.5C 299.833,269.5 307.167,269.5 314.5,269.5C 314.5,262.167 314.5,254.833 314.5,247.5C 321.42,246.372 328.42,246.205 335.5,247C 336.833,254.333 336.833,261.667 335.5,269C 328.586,269.186 321.753,269.686 315,270.5C 314.5,277.492 314.334,284.492 314.5,291.5 Z"/></g>
<g><path style="opacity:1" fill="#fefefe" d="M 359.5,269.5 C 359.5,276.833 359.5,284.167 359.5,291.5C 351.981,291.825 344.648,291.492 337.5,290.5C 336.538,283.588 336.205,276.588 336.5,269.5C 344.167,269.5 351.833,269.5 359.5,269.5 Z"/></g>
<g><path style="opacity:1" fill="#ededed" d="M 156.5,268.5 C 160.243,268.459 160.41,269.126 157,270.5C 156.5,277.492 156.334,284.492 156.5,291.5C 149.492,291.666 142.492,291.5 135.5,291C 134.167,284 134.167,277 135.5,270C 142.548,270.329 149.548,269.829 156.5,268.5 Z"/></g>
<g><path style="opacity:1" fill="#fefefe" d="M 89.5,291.5 C 96.8102,292.1 104.144,292.767 111.5,293.5C 112.796,300.499 112.796,307.499 111.5,314.5C 104.167,314.5 96.8333,314.5 89.5,314.5C 89.5,306.833 89.5,299.167 89.5,291.5 Z"/></g>
<g><path style="opacity:1" fill="#fefefe" d="M 335.5,291.5 C 335.833,291.5 336.167,291.5 336.5,291.5C 336.666,298.841 336.5,306.174 336,313.5C 328.921,314.48 321.755,314.813 314.5,314.5C 314.5,307.167 314.5,299.833 314.5,292.5C 321.687,292.825 328.687,292.491 335.5,291.5 Z"/></g>
<g><path style="opacity:1" fill="#fefefe" d="M -0.5,292.5 C 6.83333,292.5 14.1667,292.5 21.5,292.5C 21.5,299.833 21.5,307.167 21.5,314.5C 14.1667,314.5 6.83333,314.5 -0.5,314.5C -0.5,307.167 -0.5,299.833 -0.5,292.5 Z"/></g>
<g><path style="opacity:1" fill="#fefefe" d="M 44.5,292.5 C 51.8333,292.5 59.1667,292.5 66.5,292.5C 66.5,299.833 66.5,307.167 66.5,314.5C 59.1667,314.5 51.8333,314.5 44.5,314.5C 44.5,307.167 44.5,299.833 44.5,292.5 Z"/></g>
<g><path style="opacity:1" fill="#eeeeee" d="M 291.5,247.5 C 299.167,247.5 306.833,247.5 314.5,247.5C 314.5,254.833 314.5,262.167 314.5,269.5C 307.167,269.5 299.833,269.5 292.5,269.5C 292.5,276.833 292.5,284.167 292.5,291.5C 299.833,291.5 307.167,291.5 314.5,291.5C 321.5,291.5 328.5,291.5 335.5,291.5C 328.687,292.491 321.687,292.825 314.5,292.5C 314.5,299.833 314.5,307.167 314.5,314.5C 307.492,314.334 300.492,314.5 293.5,315C 292.52,322.079 292.187,329.245 292.5,336.5C 299.833,336.5 307.167,336.5 314.5,336.5C 314.5,344.167 314.5,351.833 314.5,359.5C 306.833,359.5 299.167,359.5 291.5,359.5C 291.5,352.167 291.5,344.833 291.5,337.5C 284.313,337.825 277.313,337.491 270.5,336.5C 276.176,336.666 281.843,336.499 287.5,336C 282.177,335.501 276.844,335.334 271.5,335.5C 271.5,330.167 271.5,324.833 271.5,319.5C 292.792,319.496 292.792,318.829 271.5,317.5C 277.584,316.09 283.584,316.257 289.5,318C 289.766,323.879 289.433,329.879 288.5,336C 289.448,336.483 290.448,336.649 291.5,336.5C 292.13,328.757 291.463,321.424 289.5,314.5C 291.112,308.197 292.112,301.697 292.5,295C 291.624,293.415 290.291,292.415 288.5,292C 282.175,291.5 275.842,291.334 269.5,291.5C 269.187,284.245 269.52,277.079 270.5,270C 277.492,269.5 284.492,269.334 291.5,269.5C 291.5,262.167 291.5,254.833 291.5,247.5 Z"/></g>
<g><path style="opacity:1" fill="#ededed" d="M 157.5,292.5 C 164.833,292.5 172.167,292.5 179.5,292.5C 179.5,299.833 179.5,307.167 179.5,314.5C 186.833,314.5 194.167,314.5 201.5,314.5C 201.5,321.833 201.5,329.167 201.5,336.5C 194.492,336.666 187.492,336.5 180.5,336C 179.833,329 179.167,322 178.5,315C 171.508,314.5 164.508,314.334 157.5,314.5C 157.5,307.167 157.5,299.833 157.5,292.5 Z"/></g>
<g><path style="opacity:1" fill="#ededed" d="M 224.5,292.5 C 224.666,299.508 224.5,306.508 224,313.5C 218.259,314.475 212.425,314.808 206.5,314.5C 205.432,313.566 204.099,313.232 202.5,313.5C 202.5,306.5 202.5,299.5 202.5,292.5C 209.833,292.5 217.167,292.5 224.5,292.5 Z"/></g>
<g><path style="opacity:1" fill="#fefefe" d="M 89.5,314.5 C 89.6663,321.508 89.4996,328.508 89,335.5C 82.9242,336.476 76.7576,336.81 70.5,336.5C 69.5,336.5 68.5,336.5 67.5,336.5C 67.1868,329.245 67.5201,322.079 68.5,315C 75.4921,314.5 82.4921,314.334 89.5,314.5 Z"/></g>
<g><path style="opacity:1" fill="#fefefe" d="M 224.5,291.5 C 224.833,291.5 225.167,291.5 225.5,291.5C 232.313,292.491 239.313,292.825 246.5,292.5C 246.176,299.354 246.509,306.021 247.5,312.5C 247.5,313.167 247.5,313.833 247.5,314.5C 240.159,314.334 232.826,314.5 225.5,315C 224.52,322.079 224.187,329.245 224.5,336.5C 232.132,337.358 239.799,337.691 247.5,337.5C 247.5,344.833 247.5,352.167 247.5,359.5C 239.833,359.5 232.167,359.5 224.5,359.5C 224.825,351.981 224.492,344.648 223.5,337.5C 216.687,336.509 209.687,336.175 202.5,336.5C 202.334,329.492 202.5,322.492 203,315.5C 204.011,314.663 205.178,314.33 206.5,314.5C 212.425,314.808 218.259,314.475 224,313.5C 224.5,306.508 224.666,299.508 224.5,292.5C 224.5,292.167 224.5,291.833 224.5,291.5 Z"/></g>
<g><path style="opacity:1" fill="#fefefe" d="M 359.5,314.5 C 359.5,321.833 359.5,329.167 359.5,336.5C 352.167,336.5 344.833,336.5 337.5,336.5C 337.5,329.167 337.5,321.833 337.5,314.5C 344.833,314.5 352.167,314.5 359.5,314.5 Z"/></g>
<g><path style="opacity:1" fill="#ededed" d="M 289.5,314.5 C 291.463,321.424 292.13,328.757 291.5,336.5C 290.448,336.649 289.448,336.483 288.5,336C 289.433,329.879 289.766,323.879 289.5,318C 283.584,316.257 277.584,316.09 271.5,317.5C 292.792,318.829 292.792,319.496 271.5,319.5C 271.5,324.833 271.5,330.167 271.5,335.5C 276.844,335.334 282.177,335.501 287.5,336C 281.843,336.499 276.176,336.666 270.5,336.5C 269.508,343.982 269.175,351.648 269.5,359.5C 262.167,359.5 254.833,359.5 247.5,359.5C 247.5,352.167 247.5,344.833 247.5,337.5C 239.799,337.691 232.132,337.358 224.5,336.5C 224.187,329.245 224.52,322.079 225.5,315C 232.826,314.5 240.159,314.334 247.5,314.5C 247.5,313.833 247.5,313.167 247.5,312.5C 247.5,305.833 247.5,299.167 247.5,292.5C 254.833,292.5 262.167,292.5 269.5,292.5C 269.203,299.558 269.536,306.558 270.5,313.5C 276.798,314.496 283.132,314.83 289.5,314.5 Z"/></g>
<g><path style="opacity:1" fill="#fefefe" d="M 247.5,314.5 C 254.833,314.5 262.167,314.5 269.5,314.5C 269.666,321.508 269.5,328.508 269,335.5C 261.667,336.833 254.333,336.833 247,335.5C 246.24,328.45 246.407,321.45 247.5,314.5 Z"/></g>
<g><path style="opacity:1" fill="#eeeeee" d="M 44.5,292.5 C 44.5,299.833 44.5,307.167 44.5,314.5C 51.8333,314.5 59.1667,314.5 66.5,314.5C 66.5,321.833 66.5,329.167 66.5,336.5C 59.6457,336.176 52.979,336.509 46.5,337.5C 45.8826,337.389 45.3826,337.056 45,336.5C 44.5003,344.159 44.3336,351.826 44.5,359.5C 36.8333,359.5 29.1667,359.5 21.5,359.5C 21.5,352.167 21.5,344.833 21.5,337.5C 14.1667,337.5 6.83333,337.5 -0.5,337.5C -0.5,329.833 -0.5,322.167 -0.5,314.5C 6.83333,314.5 14.1667,314.5 21.5,314.5C 21.2627,315.791 21.596,316.791 22.5,317.5C 22.5,323.833 22.5,330.167 22.5,336.5C 29.5079,336.666 36.5079,336.5 43.5,336C 44.8333,329 44.8333,322 43.5,315C 36.5079,314.5 29.5079,314.334 22.5,314.5C 22.5,307.167 22.5,299.833 22.5,292.5C 29.8333,292.5 37.1667,292.5 44.5,292.5 Z"/></g>
<g><path style="opacity:1" fill="#fefefe" d="M 22.5,314.5 C 29.5079,314.334 36.5079,314.5 43.5,315C 44.8333,322 44.8333,329 43.5,336C 36.5079,336.5 29.5079,336.666 22.5,336.5C 22.5,330.167 22.5,323.833 22.5,317.5C 22.5,316.5 22.5,315.5 22.5,314.5 Z"/></g>
<g><path style="opacity:1" fill="#fefefe" d="M 46.5,337.5 C 53.1667,337.5 59.8333,337.5 66.5,337.5C 66.5,344.833 66.5,352.167 66.5,359.5C 59.1667,359.5 51.8333,359.5 44.5,359.5C 44.3336,351.826 44.5003,344.159 45,336.5C 45.3826,337.056 45.8826,337.389 46.5,337.5 Z"/></g>
<g><path style="opacity:1" fill="#fefefe" d="M 270.5,336.5 C 277.313,337.491 284.313,337.825 291.5,337.5C 291.5,344.833 291.5,352.167 291.5,359.5C 284.167,359.5 276.833,359.5 269.5,359.5C 269.175,351.648 269.508,343.982 270.5,336.5 Z"/></g>
<g><path style="opacity:1" fill="#fefefe" d="M 314.5,314.5 C 314.068,322.279 314.568,329.946 316,337.5C 322.623,337.425 329.456,337.425 336.5,337.5C 336.5,344.833 336.5,352.167 336.5,359.5C 329.167,359.5 321.833,359.5 314.5,359.5C 314.5,351.833 314.5,344.167 314.5,336.5C 307.167,336.5 299.833,336.5 292.5,336.5C 292.187,329.245 292.52,322.079 293.5,315C 300.492,314.5 307.492,314.334 314.5,314.5 Z"/></g>
<g><path style="opacity:1" fill="#fefefe" d="M -0.5,337.5 C 6.83333,337.5 14.1667,337.5 21.5,337.5C 21.5,344.833 21.5,352.167 21.5,359.5C 14.1667,359.5 6.83333,359.5 -0.5,359.5C -0.5,352.167 -0.5,344.833 -0.5,337.5 Z"/></g>
<g><path style="opacity:1" fill="#eeeeee" d="M 89.5,314.5 C 96.8333,314.5 104.167,314.5 111.5,314.5C 112.43,321.777 112.764,329.11 112.5,336.5C 119.508,336.666 126.508,336.5 133.5,336C 134.48,328.921 134.813,321.755 134.5,314.5C 141.755,314.187 148.921,314.52 156,315.5C 156.5,322.492 156.666,329.492 156.5,336.5C 149.167,336.5 141.833,336.5 134.5,336.5C 134.5,344.167 134.5,351.833 134.5,359.5C 126.833,359.5 119.167,359.5 111.5,359.5C 111.5,352.167 111.5,344.833 111.5,337.5C 104.492,337.334 97.4921,337.5 90.5,338C 89.5201,345.079 89.1868,352.245 89.5,359.5C 82.1667,359.5 74.8333,359.5 67.5,359.5C 67.5,352.167 67.5,344.833 67.5,337.5C 68.791,337.737 69.791,337.404 70.5,336.5C 76.7576,336.81 82.9242,336.476 89,335.5C 89.4996,328.508 89.6663,321.508 89.5,314.5 Z"/></g>
<g><path style="opacity:1" fill="#fefefe" d="M 111.5,359.5 C 104.167,359.5 96.8333,359.5 89.5,359.5C 89.1868,352.245 89.5201,345.079 90.5,338C 97.4921,337.5 104.492,337.334 111.5,337.5C 111.5,344.833 111.5,352.167 111.5,359.5 Z"/></g>
<g><path style="opacity:1" fill="#fefefe" d="M 111.5,314.5 C 119.167,314.5 126.833,314.5 134.5,314.5C 134.813,321.755 134.48,328.921 133.5,336C 126.508,336.5 119.508,336.666 112.5,336.5C 112.764,329.11 112.43,321.777 111.5,314.5 Z"/></g>
<g><path style="opacity:1" fill="#ededed" d="M 179.5,359.5 C 172.167,359.5 164.833,359.5 157.5,359.5C 157.5,352.167 157.5,344.833 157.5,337.5C 164.833,337.5 172.167,337.5 179.5,337.5C 179.5,344.833 179.5,352.167 179.5,359.5 Z"/></g>
<g><path style="opacity:1" fill="#ededed" d="M 223.5,337.5 C 224.492,344.648 224.825,351.981 224.5,359.5C 217.167,359.5 209.833,359.5 202.5,359.5C 202.5,352.167 202.5,344.833 202.5,337.5C 209.5,337.5 216.5,337.5 223.5,337.5 Z"/></g>
<g><path style="opacity:1" fill="#eeeeee" d="M 337.5,290.5 C 344.648,291.492 351.981,291.825 359.5,291.5C 359.5,299.167 359.5,306.833 359.5,314.5C 352.167,314.5 344.833,314.5 337.5,314.5C 337.5,321.833 337.5,329.167 337.5,336.5C 344.833,336.5 352.167,336.5 359.5,336.5C 359.5,344.167 359.5,351.833 359.5,359.5C 351.833,359.5 344.167,359.5 336.5,359.5C 336.5,352.167 336.5,344.833 336.5,337.5C 329.456,337.425 322.623,337.425 316,337.5C 314.568,329.946 314.068,322.279 314.5,314.5C 321.755,314.813 328.921,314.48 336,313.5C 336.5,306.174 336.666,298.841 336.5,291.5C 336.5,290.833 336.833,290.5 337.5,290.5 Z"/></g>
</svg>
